<svg xmlns="http://www.w3.org/2000/svg" xmlns:xlink="http://www.w3.org/1999/xlink" version="1.1" class="marks" width="583" height="357" viewBox="0 0 583 357"><rect width="583" height="357" fill="white"/><g fill="none" stroke-miterlimit="10" transform="translate(56,10)"><g class="mark-group role-frame root" role="graphics-object" aria-roledescription="group mark container"><g transform="translate(0,0)"><path class="background" aria-hidden="true" d="M0.5,0.5h400v300h-400Z" stroke="#ddd"/><g><g class="mark-group role-axis" aria-hidden="true"><g transform="translate(0.5,0.5)"><path class="background" aria-hidden="true" d="M0,0h0v0h0Z" pointer-events="none"/><g><g class="mark-rule role-axis-grid" pointer-events="none"><line transform="translate(0,300)" x2="400" y2="0" stroke="#ddd" stroke-width="1" opacity="1"/><line transform="translate(0,257)" x2="400" y2="0" stroke="#ddd" stroke-width="1" opacity="1"/><line transform="translate(0,214)" x2="400" y2="0" stroke="#ddd" stroke-width="1" opacity="1"/><line transform="translate(0,171)" x2="400" y2="0" stroke="#ddd" stroke-width="1" opacity="1"/><line transform="translate(0,129)" x2="400" y2="0" stroke="#ddd" stroke-width="1" opacity="1"/><line transform="translate(0,86)" x2="400" y2="0" stroke="#ddd" stroke-width="1" opacity="1"/><line transform="translate(0,43)" x2="400" y2="0" stroke="#ddd" stroke-width="1" opacity="1"/><line transform="translate(0,0)" x2="400" y2="0" stroke="#ddd" stroke-width="1" opacity="1"/></g></g><path class="foreground" aria-hidden="true" d="" pointer-events="none" display="none"/></g></g><g class="mark-group role-axis" role="graphics-symbol" aria-roledescription="axis" aria-label="X-axis titled 'timestamp' for a discrete scale with 38 values: 1, 2, 4, 6, 7, ending with 311"><g transform="translate(0.5,300.5)"><path class="background" aria-hidden="true" d="M0,0h0v0h0Z" pointer-events="none"/><g><g class="mark-rule role-axis-tick" pointer-events="none"><line transform="translate(5,0)" x2="0" y2="5" stroke="#888" stroke-width="1" opacity="1"/><line transform="translate(16,0)" x2="0" y2="5" stroke="#888" stroke-width="1" opacity="1"/><line transform="translate(26,0)" x2="0" y2="5" stroke="#888" stroke-width="1" opacity="1"/><line transform="translate(37,0)" x2="0" y2="5" stroke="#888" stroke-width="1" opacity="1"/><line transform="translate(47,0)" x2="0" y2="5" stroke="#888" stroke-width="1" opacity="1"/><line transform="translate(58,0)" x2="0" y2="5" stroke="#888" stroke-width="1" opacity="1"/><line transform="translate(68,0)" x2="0" y2="5" stroke="#888" stroke-width="1" opacity="1"/><line transform="translate(79,0)" x2="0" y2="5" stroke="#888" stroke-width="1" opacity="1"/><line transform="translate(89,0)" x2="0" y2="5" stroke="#888" stroke-width="1" opacity="1"/><line transform="translate(100,0)" x2="0" y2="5" stroke="#888" stroke-width="1" opacity="1"/><line transform="translate(111,0)" x2="0" y2="5" stroke="#888" stroke-width="1" opacity="1"/><line transform="translate(121,0)" x2="0" y2="5" stroke="#888" stroke-width="1" opacity="1"/><line transform="translate(132,0)" x2="0" y2="5" stroke="#888" stroke-width="1" opacity="1"/><line transform="translate(142,0)" x2="0" y2="5" stroke="#888" stroke-width="1" opacity="1"/><line transform="translate(153,0)" x2="0" y2="5" stroke="#888" stroke-width="1" opacity="1"/><line transform="translate(163,0)" x2="0" y2="5" stroke="#888" stroke-width="1" opacity="1"/><line transform="translate(174,0)" x2="0" y2="5" stroke="#888" stroke-width="1" opacity="1"/><line transform="translate(184,0)" x2="0" y2="5" stroke="#888" stroke-width="1" opacity="1"/><line transform="translate(195,0)" x2="0" y2="5" stroke="#888" stroke-width="1" opacity="1"/><line transform="translate(205,0)" x2="0" y2="5" stroke="#888" stroke-width="1" opacity="1"/><line transform="translate(216,0)" x2="0" y2="5" stroke="#888" stroke-width="1" opacity="1"/><line transform="translate(226,0)" x2="0" y2="5" stroke="#888" stroke-width="1" opacity="1"/><line transform="translate(237,0)" x2="0" y2="5" stroke="#888" stroke-width="1" opacity="1"/><line transform="translate(247,0)" x2="0" y2="5" stroke="#888" stroke-width="1" opacity="1"/><line transform="translate(258,0)" x2="0" y2="5" stroke="#888" stroke-width="1" opacity="1"/><line transform="translate(268,0)" x2="0" y2="5" stroke="#888" stroke-width="1" opacity="1"/><line transform="translate(279,0)" x2="0" y2="5" stroke="#888" stroke-width="1" opacity="1"/><line transform="translate(289,0)" x2="0" y2="5" stroke="#888" stroke-width="1" opacity="1"/><line transform="translate(300,0)" x2="0" y2="5" stroke="#888" stroke-width="1" opacity="1"/><line transform="translate(311,0)" x2="0" y2="5" stroke="#888" stroke-width="1" opacity="1"/><line transform="translate(321,0)" x2="0" y2="5" stroke="#888" stroke-width="1" opacity="1"/><line transform="translate(332,0)" x2="0" y2="5" stroke="#888" stroke-width="1" opacity="1"/><line transform="translate(342,0)" x2="0" y2="5" stroke="#888" stroke-width="1" opacity="1"/><line transform="translate(353,0)" x2="0" y2="5" stroke="#888" stroke-width="1" opacity="1"/><line transform="translate(363,0)" x2="0" y2="5" stroke="#888" stroke-width="1" opacity="1"/><line transform="translate(374,0)" x2="0" y2="5" stroke="#888" stroke-width="1" opacity="1"/><line transform="translate(384,0)" x2="0" y2="5" stroke="#888" stroke-width="1" opacity="1"/><line transform="translate(395,0)" x2="0" y2="5" stroke="#888" stroke-width="1" opacity="1"/></g><g class="mark-text role-axis-label" pointer-events="none"><text text-anchor="end" transform="translate(5.263157894736821,7) rotate(270) translate(0,3)" font-family="sans-serif" font-size="10px" fill="#000" opacity="1">1</text><text text-anchor="end" transform="translate(15.789473684210506,7) rotate(270) translate(0,3)" font-family="sans-serif" font-size="10px" fill="#000" opacity="1">2</text><text text-anchor="end" transform="translate(26.31578947368419,7) rotate(270) translate(0,3)" font-family="sans-serif" font-size="10px" fill="#000" opacity="1">4</text><text text-anchor="end" transform="translate(36.842105263157876,7) rotate(270) translate(0,3)" font-family="sans-serif" font-size="10px" fill="#000" opacity="1">6</text><text text-anchor="end" transform="translate(47.36842105263156,7) rotate(270) translate(0,3)" font-family="sans-serif" font-size="10px" fill="#000" opacity="1">7</text><text text-anchor="end" transform="translate(57.894736842105246,7) rotate(270) translate(0,3)" font-family="sans-serif" font-size="10px" fill="#000" opacity="1">9</text><text text-anchor="end" transform="translate(68.42105263157893,7) rotate(270) translate(0,3)" font-family="sans-serif" font-size="10px" fill="#000" opacity="1">12</text><text text-anchor="end" transform="translate(78.94736842105262,7) rotate(270) translate(0,3)" font-family="sans-serif" font-size="10px" fill="#000" opacity="1">14</text><text text-anchor="end" transform="translate(89.4736842105263,7) rotate(270) translate(0,3)" font-family="sans-serif" font-size="10px" fill="#000" opacity="1">17</text><text text-anchor="end" transform="translate(99.99999999999999,7) rotate(270) translate(0,3)" font-family="sans-serif" font-size="10px" fill="#000" opacity="1">20</text><text text-anchor="end" transform="translate(110.52631578947367,7) rotate(270) translate(0,3)" font-family="sans-serif" font-size="10px" fill="#000" opacity="1">24</text><text text-anchor="end" transform="translate(121.05263157894736,7) rotate(270) translate(0,3)" font-family="sans-serif" font-size="10px" fill="#000" opacity="1">27</text><text text-anchor="end" transform="translate(131.57894736842104,7) rotate(270) translate(0,3)" font-family="sans-serif" font-size="10px" fill="#000" opacity="1">28</text><text text-anchor="end" transform="translate(142.10526315789474,7) rotate(270) translate(0,3)" font-family="sans-serif" font-size="10px" fill="#000" opacity="1">31</text><text text-anchor="end" transform="translate(152.6315789473684,7) rotate(270) translate(0,3)" font-family="sans-serif" font-size="10px" fill="#000" opacity="1">36</text><text text-anchor="end" transform="translate(163.15789473684208,7) rotate(270) translate(0,3)" font-family="sans-serif" font-size="10px" fill="#000" opacity="1">40</text><text text-anchor="end" transform="translate(173.68421052631578,7) rotate(270) translate(0,3)" font-family="sans-serif" font-size="10px" fill="#000" opacity="1">45</text><text text-anchor="end" transform="translate(184.21052631578948,7) rotate(270) translate(0,3)" font-family="sans-serif" font-size="10px" fill="#000" opacity="1">52</text><text text-anchor="end" transform="translate(194.73684210526315,7) rotate(270) translate(0,3)" font-family="sans-serif" font-size="10px" fill="#000" opacity="1">58</text><text text-anchor="end" transform="translate(205.26315789473682,7) rotate(270) translate(0,3)" font-family="sans-serif" font-size="10px" fill="#000" opacity="1">64</text><text text-anchor="end" transform="translate(215.78947368421052,7) rotate(270) translate(0,3)" font-family="sans-serif" font-size="10px" fill="#000" opacity="1">65</text><text text-anchor="end" transform="translate(226.31578947368422,7) rotate(270) translate(0,3)" font-family="sans-serif" font-size="10px" fill="#000" opacity="1">71</text><text text-anchor="end" transform="translate(236.8421052631579,7) rotate(270) translate(0,3)" font-family="sans-serif" font-size="10px" fill="#000" opacity="1">72</text><text text-anchor="end" transform="translate(247.36842105263156,7) rotate(270) translate(0,3)" font-family="sans-serif" font-size="10px" fill="#000" opacity="1">79</text><text text-anchor="end" transform="translate(257.89473684210526,7) rotate(270) translate(0,3)" font-family="sans-serif" font-size="10px" fill="#000" opacity="1">87</text><text text-anchor="end" transform="translate(268.42105263157896,7) rotate(270) translate(0,3)" font-family="sans-serif" font-size="10px" fill="#000" opacity="1">99</text><text text-anchor="end" transform="translate(278.94736842105266,7) rotate(270) translate(0,3)" font-family="sans-serif" font-size="10px" fill="#000" opacity="1">111</text><text text-anchor="end" transform="translate(289.4736842105263,7) rotate(270) translate(0,3)" font-family="sans-serif" font-size="10px" fill="#000" opacity="1">124</text><text text-anchor="end" transform="translate(300,7) rotate(270) translate(0,3)" font-family="sans-serif" font-size="10px" fill="#000" opacity="1">139</text><text text-anchor="end" transform="translate(310.5263157894737,7) rotate(270) translate(0,3)" font-family="sans-serif" font-size="10px" fill="#000" opacity="1">155</text><text text-anchor="end" transform="translate(321.05263157894734,7) rotate(270) translate(0,3)" font-family="sans-serif" font-size="10px" fill="#000" opacity="1">170</text><text text-anchor="end" transform="translate(331.57894736842104,7) rotate(270) translate(0,3)" font-family="sans-serif" font-size="10px" fill="#000" opacity="1">171</text><text text-anchor="end" transform="translate(342.10526315789474,7) rotate(270) translate(0,3)" font-family="sans-serif" font-size="10px" fill="#000" opacity="1">186</text><text text-anchor="end" transform="translate(352.63157894736844,7) rotate(270) translate(0,3)" font-family="sans-serif" font-size="10px" fill="#000" opacity="1">208</text><text text-anchor="end" transform="translate(363.15789473684214,7) rotate(270) translate(0,3)" font-family="sans-serif" font-size="10px" fill="#000" opacity="1">230</text><text text-anchor="end" transform="translate(373.6842105263158,7) rotate(270) translate(0,3)" font-family="sans-serif" font-size="10px" fill="#000" opacity="1">252</text><text text-anchor="end" transform="translate(384.2105263157895,7) rotate(270) translate(0,3)" font-family="sans-serif" font-size="10px" fill="#000" opacity="1">282</text><text text-anchor="end" transform="translate(394.7368421052632,7) rotate(270) translate(0,3)" font-family="sans-serif" font-size="10px" fill="#000" opacity="1">311</text></g><g class="mark-rule role-axis-domain" pointer-events="none"><line transform="translate(0,0)" x2="400" y2="0" stroke="#888" stroke-width="1" opacity="1"/></g><g class="mark-text role-axis-title" pointer-events="none"><text text-anchor="middle" transform="translate(200,39.10000038146973)" font-family="sans-serif" font-size="11px" font-weight="bold" fill="#000" opacity="1">timestamp</text></g></g><path class="foreground" aria-hidden="true" d="" pointer-events="none" display="none"/></g></g><g class="mark-group role-axis" role="graphics-symbol" aria-roledescription="axis" aria-label="Y-axis titled 'generated candidates' for a linear scale with values from 0 to 3,500"><g transform="translate(0.5,0.5)"><path class="background" aria-hidden="true" d="M0,0h0v0h0Z" pointer-events="none"/><g><g class="mark-rule role-axis-tick" pointer-events="none"><line transform="translate(0,300)" x2="-5" y2="0" stroke="#888" stroke-width="1" opacity="1"/><line transform="translate(0,257)" x2="-5" y2="0" stroke="#888" stroke-width="1" opacity="1"/><line transform="translate(0,214)" x2="-5" y2="0" stroke="#888" stroke-width="1" opacity="1"/><line transform="translate(0,171)" x2="-5" y2="0" stroke="#888" stroke-width="1" opacity="1"/><line transform="translate(0,129)" x2="-5" y2="0" stroke="#888" stroke-width="1" opacity="1"/><line transform="translate(0,86)" x2="-5" y2="0" stroke="#888" stroke-width="1" opacity="1"/><line transform="translate(0,43)" x2="-5" y2="0" stroke="#888" stroke-width="1" opacity="1"/><line transform="translate(0,0)" x2="-5" y2="0" stroke="#888" stroke-width="1" opacity="1"/></g><g class="mark-text role-axis-label" pointer-events="none"><text text-anchor="end" transform="translate(-7,303)" font-family="sans-serif" font-size="10px" fill="#000" opacity="1">0</text><text text-anchor="end" transform="translate(-7,260.14285714285717)" font-family="sans-serif" font-size="10px" fill="#000" opacity="1">500</text><text text-anchor="end" transform="translate(-7,217.28571428571428)" font-family="sans-serif" font-size="10px" fill="#000" opacity="1">1,000</text><text text-anchor="end" transform="translate(-7,174.42857142857142)" font-family="sans-serif" font-size="10px" fill="#000" opacity="1">1,500</text><text text-anchor="end" transform="translate(-7,131.57142857142858)" font-family="sans-serif" font-size="10px" fill="#000" opacity="1">2,000</text><text text-anchor="end" transform="translate(-7,88.71428571428571)" font-family="sans-serif" font-size="10px" fill="#000" opacity="1">2,500</text><text text-anchor="end" transform="translate(-7,45.85714285714287)" font-family="sans-serif" font-size="10px" fill="#000" opacity="1">3,000</text><text text-anchor="end" transform="translate(-7,3)" font-family="sans-serif" font-size="10px" fill="#000" opacity="1">3,500</text></g><g class="mark-rule role-axis-domain" pointer-events="none"><line transform="translate(0,300)" x2="0" y2="-300" stroke="#888" stroke-width="1" opacity="1"/></g><g class="mark-text role-axis-title" pointer-events="none"><text text-anchor="middle" transform="translate(-39.64999961853027,150) rotate(-90) translate(0,-2)" font-family="sans-serif" font-size="11px" font-weight="bold" fill="#000" opacity="1">generated candidates</text></g></g><path class="foreground" aria-hidden="true" d="" pointer-events="none" display="none"/></g></g><g class="mark-group role-scope pathgroup" role="graphics-object" aria-roledescription="group mark container"><g transform="translate(0,0)"><path class="background" aria-hidden="true" d="M0,0h400v300h-400Z"/><g><g class="mark-area role-mark marks" role="graphics-object" aria-roledescription="area mark container"><path aria-label="reason: cardinality; timestamp: 1; generated candidates: 1486" role="graphics-symbol" aria-roledescription="area mark" d="M5.263157894736821,52.114285714285714L15.789473684210506,112.1142857142857L26.31578947368419,118.97142857142858L36.842105263157876,129.17142857142858L47.36842105263156,152.05714285714288L57.894736842105246,147.5142857142857L68.42105263157893,148.8L78.94736842105262,150.42857142857144L89.4736842105263,150.17142857142858L99.99999999999999,153.25714285714287L110.52631578947367,156.51428571428573L121.05263157894736,165.25714285714287L131.57894736842104,291.34285714285716L142.10526315789474,159.77142857142857L152.6315789473684,156.68571428571428L163.15789473684208,163.0285714285714L173.68421052631578,160.1142857142857L184.21052631578948,163.37142857142857L194.73684210526315,183.25714285714287L205.26315789473682,191.82857142857145L215.78947368421052,297.6L226.31578947368422,192.08571428571432L236.8421052631579,297.34285714285716L247.36842105263156,229.62857142857143L257.89473684210526,233.74285714285713L268.42105263157896,229.62857142857143L278.94736842105266,233.74285714285713L289.4736842105263,229.62857142857143L300,233.74285714285713L310.5263157894737,233.74285714285713L321.05263157894734,240.94285714285715L331.57894736842104,296.9142857142857L342.10526315789474,241.88571428571427L352.63157894736844,237.85714285714283L363.15789473684214,241.88571428571427L373.6842105263158,246.0857142857143L384.2105263157895,241.9714285714286L394.7368421052632,250.28571428571428L394.7368421052632,277.2857142857143L384.2105263157895,273L373.6842105263158,277.1142857142857L363.15789473684214,272.9142857142857L352.63157894736844,272.22857142857146L342.10526315789474,272.9142857142857L331.57894736842104,296.9142857142857L321.05263157894734,275.3142857142857L310.5263157894737,268.2857142857143L300,268.2857142857143L289.4736842105263,264.9428571428571L278.94736842105266,268.2857142857143L268.42105263157896,266.74285714285713L257.89473684210526,268.2857142857143L247.36842105263156,264.9428571428571L236.8421052631579,297.34285714285716L226.31578947368422,262.62857142857143L215.78947368421052,297.6L205.26315789473682,262.37142857142857L194.73684210526315,251.22857142857143L184.21052631578948,231.34285714285713L173.68421052631578,231.34285714285713L163.15789473684208,231L152.6315789473684,229.62857142857143L142.10526315789474,230.31428571428572L131.57894736842104,291.34285714285716L121.05263157894736,235.71428571428572L110.52631578947367,230.31428571428572L99.99999999999999,229.54285714285714L89.4736842105263,228.85714285714286L78.94736842105262,229.54285714285714L68.42105263157893,230.31428571428572L57.894736842105246,228.77142857142857L47.36842105263156,231L36.842105263157876,227.65714285714287L26.31578947368419,217.3714285714286L15.789473684210506,215.1428571428571L5.263157894736821,179.4857142857143Z" fill="#f58518" opacity="0.7"/></g></g><path class="foreground" aria-hidden="true" d="" display="none"/></g><g transform="translate(0,0)"><path class="background" aria-hidden="true" d="M0,0h400v300h-400Z"/><g><g class="mark-area role-mark marks" role="graphics-object" aria-roledescription="area mark container"><path aria-label="reason: extrema; timestamp: 1; generated candidates: 1086" role="graphics-symbol" aria-roledescription="area mark" d="M5.263157894736821,204.77142857142857L15.789473684210506,238.6285714285714L26.31578947368419,240.17142857142858L36.842105263157876,247.37142857142857L47.36842105263156,249.85714285714286L57.894736842105246,248.05714285714285L68.42105263157893,249.42857142857142L78.94736842105262,248.14285714285717L89.4736842105263,247.8L99.99999999999999,247.8857142857143L110.52631578947367,247.8857142857143L121.05263157894736,254.05714285714285L131.57894736842104,291.34285714285716L142.10526315789474,247.54285714285714L152.6315789473684,247.54285714285714L163.15789473684208,247.54285714285714L173.68421052631578,247.8857142857143L184.21052631578948,247.8857142857143L194.73684210526315,262.2L205.26315789473682,272.3142857142857L215.78947368421052,297.6L226.31578947368422,272.22857142857146L236.8421052631579,297.34285714285716L247.36842105263156,272.74285714285713L257.89473684210526,275.74285714285713L268.42105263157896,275.65714285714284L278.94736842105266,275.65714285714284L289.4736842105263,272.74285714285713L300,275.74285714285713L310.5263157894737,275.74285714285713L321.05263157894734,282.42857142857144L331.57894736842104,296.9142857142857L342.10526315789474,279.4285714285714L352.63157894736844,279.34285714285716L363.15789473684214,279.4285714285714L373.6842105263158,283.2857142857143L384.2105263157895,279.51428571428573L394.7368421052632,283.37142857142857L394.7368421052632,294L384.2105263157895,294.0857142857143L373.6842105263158,294L363.15789473684214,294L352.63157894736844,293.9142857142857L342.10526315789474,294L331.57894736842104,296.9142857142857L321.05263157894734,297L310.5263157894737,292.97142857142853L300,292.97142857142853L289.4736842105263,292.1142857142857L278.94736842105266,292.97142857142853L268.42105263157896,293.0571428571429L257.89473684210526,293.0571428571429L247.36842105263156,292.2L236.8421052631579,297.34285714285716L226.31578947368422,294.51428571428573L215.78947368421052,297.6L205.26315789473682,294.25714285714287L194.73684210526315,289.54285714285714L184.21052631578948,286.54285714285714L173.68421052631578,286.54285714285714L163.15789473684208,286.2L152.6315789473684,286.2L142.10526315789474,286.2L131.57894736842104,291.34285714285716L121.05263157894736,294.9428571428571L110.52631578947367,286.2857142857143L99.99999999999999,287.4L89.4736842105263,287.4L78.94736842105262,287.8285714285714L68.42105263157893,289.2857142857143L57.894736842105246,290.65714285714284L47.36842105263156,292.62857142857143L36.842105263157876,293.2285714285714L26.31578947368419,295.7142857142857L15.789473684210506,299.0571428571429L5.263157894736821,297.8571428571429Z" fill="#72b7b2" opacity="0.7"/></g></g><path class="foreground" aria-hidden="true" d="" display="none"/></g><g transform="translate(0,0)"><path class="background" aria-hidden="true" d="M0,0h400v300h-400Z"/><g><g class="mark-area role-mark marks" role="graphics-object" aria-roledescription="area mark container"><path aria-label="reason: datatype; timestamp: 1; generated candidates: 295" role="graphics-symbol" aria-roledescription="area mark" d="M5.263157894736821,179.4857142857143L15.789473684210506,215.1428571428571L26.31578947368419,217.3714285714286L36.842105263157876,227.65714285714287L47.36842105263156,231L57.894736842105246,228.77142857142857L68.42105263157893,230.31428571428572L78.94736842105262,229.54285714285714L89.4736842105263,228.85714285714286L99.99999999999999,229.54285714285714L110.52631578947367,230.31428571428572L121.05263157894736,235.71428571428572L131.57894736842104,291.34285714285716L142.10526315789474,230.31428571428572L152.6315789473684,229.62857142857143L163.15789473684208,231L173.68421052631578,231.34285714285713L184.21052631578948,231.34285714285713L194.73684210526315,251.22857142857143L205.26315789473682,262.37142857142857L215.78947368421052,297.6L226.31578947368422,262.62857142857143L236.8421052631579,297.34285714285716L247.36842105263156,264.9428571428571L257.89473684210526,268.2857142857143L268.42105263157896,266.74285714285713L278.94736842105266,268.2857142857143L289.4736842105263,264.9428571428571L300,268.2857142857143L310.5263157894737,268.2857142857143L321.05263157894734,275.3142857142857L331.57894736842104,296.9142857142857L342.10526315789474,272.9142857142857L352.63157894736844,272.22857142857146L363.15789473684214,272.9142857142857L373.6842105263158,277.1142857142857L384.2105263157895,273L394.7368421052632,277.2857142857143L394.7368421052632,283.37142857142857L384.2105263157895,279.51428571428573L373.6842105263158,283.2857142857143L363.15789473684214,279.4285714285714L352.63157894736844,279.34285714285716L342.10526315789474,279.4285714285714L331.57894736842104,296.9142857142857L321.05263157894734,282.42857142857144L310.5263157894737,275.74285714285713L300,275.74285714285713L289.4736842105263,272.74285714285713L278.94736842105266,275.65714285714284L268.42105263157896,275.65714285714284L257.89473684210526,275.74285714285713L247.36842105263156,272.74285714285713L236.8421052631579,297.34285714285716L226.31578947368422,272.22857142857146L215.78947368421052,297.6L205.26315789473682,272.3142857142857L194.73684210526315,262.2L184.21052631578948,247.8857142857143L173.68421052631578,247.8857142857143L163.15789473684208,247.54285714285714L152.6315789473684,247.54285714285714L142.10526315789474,247.54285714285714L131.57894736842104,291.34285714285716L121.05263157894736,254.05714285714285L110.52631578947367,247.8857142857143L99.99999999999999,247.8857142857143L89.4736842105263,247.8L78.94736842105262,248.14285714285717L68.42105263157893,249.42857142857142L57.894736842105246,248.05714285714285L47.36842105263156,249.85714285714286L36.842105263157876,247.37142857142857L26.31578947368419,240.17142857142858L15.789473684210506,238.6285714285714L5.263157894736821,204.77142857142857Z" fill="#e45756" opacity="0.7"/></g></g><path class="foreground" aria-hidden="true" d="" display="none"/></g><g transform="translate(0,0)"><path class="background" aria-hidden="true" d="M0,0h400v300h-400Z"/><g><g class="mark-area role-mark marks" role="graphics-object" aria-roledescription="area mark container"><path aria-label="reason: bloomfilter; timestamp: 1; generated candidates: 188" role="graphics-symbol" aria-roledescription="area mark" d="M5.263157894736821,36L15.789473684210506,98.39999999999999L26.31578947368419,108.08571428571429L36.842105263157876,122.65714285714284L47.36842105263156,147.17142857142858L57.894736842105246,144.0857142857143L68.42105263157893,147L78.94736842105262,150.08571428571426L89.4736842105263,150.17142857142858L99.99999999999999,153.25714285714287L110.52631578947367,156.51428571428573L121.05263157894736,165.25714285714287L131.57894736842104,291.34285714285716L142.10526315789474,159.77142857142857L152.6315789473684,156.68571428571428L163.15789473684208,163.0285714285714L173.68421052631578,160.1142857142857L184.21052631578948,163.37142857142857L194.73684210526315,183.25714285714287L205.26315789473682,191.82857142857145L215.78947368421052,297.6L226.31578947368422,192.08571428571432L236.8421052631579,297.34285714285716L247.36842105263156,229.62857142857143L257.89473684210526,233.74285714285713L268.42105263157896,229.62857142857143L278.94736842105266,233.74285714285713L289.4736842105263,229.62857142857143L300,233.74285714285713L310.5263157894737,233.74285714285713L321.05263157894734,240.94285714285715L331.57894736842104,296.9142857142857L342.10526315789474,241.88571428571427L352.63157894736844,237.85714285714283L363.15789473684214,241.88571428571427L373.6842105263158,246.0857142857143L384.2105263157895,241.9714285714286L394.7368421052632,250.28571428571428L394.7368421052632,250.28571428571428L384.2105263157895,241.9714285714286L373.6842105263158,246.0857142857143L363.15789473684214,241.88571428571427L352.63157894736844,237.85714285714283L342.10526315789474,241.88571428571427L331.57894736842104,296.9142857142857L321.05263157894734,240.94285714285715L310.5263157894737,233.74285714285713L300,233.74285714285713L289.4736842105263,229.62857142857143L278.94736842105266,233.74285714285713L268.42105263157896,229.62857142857143L257.89473684210526,233.74285714285713L247.36842105263156,229.62857142857143L236.8421052631579,297.34285714285716L226.31578947368422,192.08571428571432L215.78947368421052,297.6L205.26315789473682,191.82857142857145L194.73684210526315,183.25714285714287L184.21052631578948,163.37142857142857L173.68421052631578,160.1142857142857L163.15789473684208,163.0285714285714L152.6315789473684,156.68571428571428L142.10526315789474,159.77142857142857L131.57894736842104,291.34285714285716L121.05263157894736,165.25714285714287L110.52631578947367,156.51428571428573L99.99999999999999,153.25714285714287L89.4736842105263,150.17142857142858L78.94736842105262,150.42857142857144L68.42105263157893,148.8L57.894736842105246,147.5142857142857L47.36842105263156,152.05714285714288L36.842105263157876,129.17142857142858L26.31578947368419,118.97142857142858L15.789473684210506,112.1142857142857L5.263157894736821,52.114285714285714Z" fill="#4c78a8" opacity="0.7"/></g></g><path class="foreground" aria-hidden="true" d="" display="none"/></g><g transform="translate(0,0)"><path class="background" aria-hidden="true" d="M0,0h400v300h-400Z"/><g><g class="mark-area role-mark marks" role="graphics-object" aria-roledescription="area mark container"><path aria-label="reason: succeeded_check; timestamp: 1; generated candidates: 25" role="graphics-symbol" aria-roledescription="area mark" d="M5.263157894736821,297.8571428571429L15.789473684210506,299.8285714285714L26.31578947368419,299.74285714285713L36.842105263157876,299.8285714285714L47.36842105263156,300L57.894736842105246,299.8285714285714L68.42105263157893,300L78.94736842105262,300L89.4736842105263,300L99.99999999999999,300L110.52631578947367,299.8285714285714L121.05263157894736,299.9142857142857L131.57894736842104,299.9142857142857L142.10526315789474,299.8285714285714L152.6315789473684,299.8285714285714L163.15789473684208,299.8285714285714L173.68421052631578,299.74285714285713L184.21052631578948,299.74285714285713L194.73684210526315,299.9142857142857L205.26315789473682,299.9142857142857L215.78947368421052,300L226.31578947368422,299.9142857142857L236.8421052631579,300L247.36842105263156,299.9142857142857L257.89473684210526,299.9142857142857L268.42105263157896,299.9142857142857L278.94736842105266,299.8285714285714L289.4736842105263,299.8285714285714L300,299.8285714285714L310.5263157894737,299.8285714285714L321.05263157894734,299.9142857142857L331.57894736842104,300L342.10526315789474,299.9142857142857L352.63157894736844,299.9142857142857L363.15789473684214,299.9142857142857L373.6842105263158,299.9142857142857L384.2105263157895,299.9142857142857L394.7368421052632,299.9142857142857L394.7368421052632,300L384.2105263157895,300L373.6842105263158,300L363.15789473684214,300L352.63157894736844,300L342.10526315789474,300L331.57894736842104,300L321.05263157894734,300L310.5263157894737,300L300,300L289.4736842105263,300L278.94736842105266,300L268.42105263157896,300L257.89473684210526,300L247.36842105263156,300L236.8421052631579,300L226.31578947368422,300L215.78947368421052,300L205.26315789473682,300L194.73684210526315,300L184.21052631578948,300L173.68421052631578,300L163.15789473684208,300L152.6315789473684,300L142.10526315789474,300L131.57894736842104,300L121.05263157894736,300L110.52631578947367,300L99.99999999999999,300L89.4736842105263,300L78.94736842105262,300L68.42105263157893,300L57.894736842105246,300L47.36842105263156,300L36.842105263157876,300L26.31578947368419,300L15.789473684210506,300L5.263157894736821,300Z" fill="#eeca3b" opacity="0.7"/></g></g><path class="foreground" aria-hidden="true" d="" display="none"/></g><g transform="translate(0,0)"><path class="background" aria-hidden="true" d="M0,0h400v300h-400Z"/><g><g class="mark-area role-mark marks" role="graphics-object" aria-roledescription="area mark container"><path aria-label="reason: failed_check; timestamp: 1; generated candidates: 0" role="graphics-symbol" aria-roledescription="area mark" d="M5.263157894736821,297.8571428571429L15.789473684210506,299.0571428571429L26.31578947368419,295.7142857142857L36.842105263157876,293.2285714285714L47.36842105263156,292.62857142857143L57.894736842105246,290.65714285714284L68.42105263157893,289.2857142857143L78.94736842105262,287.8285714285714L89.4736842105263,287.4L99.99999999999999,287.4L110.52631578947367,286.2857142857143L121.05263157894736,294.9428571428571L131.57894736842104,291.34285714285716L142.10526315789474,286.2L152.6315789473684,286.2L163.15789473684208,286.2L173.68421052631578,286.54285714285714L184.21052631578948,286.54285714285714L194.73684210526315,289.54285714285714L205.26315789473682,294.25714285714287L215.78947368421052,297.6L226.31578947368422,294.51428571428573L236.8421052631579,297.34285714285716L247.36842105263156,292.2L257.89473684210526,293.0571428571429L268.42105263157896,293.0571428571429L278.94736842105266,292.97142857142853L289.4736842105263,292.1142857142857L300,292.97142857142853L310.5263157894737,292.97142857142853L321.05263157894734,297L331.57894736842104,296.9142857142857L342.10526315789474,294L352.63157894736844,293.9142857142857L363.15789473684214,294L373.6842105263158,294L384.2105263157895,294.0857142857143L394.7368421052632,294L394.7368421052632,299.9142857142857L384.2105263157895,299.9142857142857L373.6842105263158,299.9142857142857L363.15789473684214,299.9142857142857L352.63157894736844,299.9142857142857L342.10526315789474,299.9142857142857L331.57894736842104,300L321.05263157894734,299.9142857142857L310.5263157894737,299.8285714285714L300,299.8285714285714L289.4736842105263,299.8285714285714L278.94736842105266,299.8285714285714L268.42105263157896,299.9142857142857L257.89473684210526,299.9142857142857L247.36842105263156,299.9142857142857L236.8421052631579,300L226.31578947368422,299.9142857142857L215.78947368421052,300L205.26315789473682,299.9142857142857L194.73684210526315,299.9142857142857L184.21052631578948,299.74285714285713L173.68421052631578,299.74285714285713L163.15789473684208,299.8285714285714L152.6315789473684,299.8285714285714L142.10526315789474,299.8285714285714L131.57894736842104,299.9142857142857L121.05263157894736,299.9142857142857L110.52631578947367,299.8285714285714L99.99999999999999,300L89.4736842105263,300L78.94736842105262,300L68.42105263157893,300L57.894736842105246,299.8285714285714L47.36842105263156,300L36.842105263157876,299.8285714285714L26.31578947368419,299.74285714285713L15.789473684210506,299.8285714285714L5.263157894736821,297.8571428571429Z" fill="#54a24b" opacity="0.7"/></g></g><path class="foreground" aria-hidden="true" d="" display="none"/></g></g><g class="mark-group role-legend" role="graphics-symbol" aria-roledescription="legend" aria-label="Symbol legend titled 'reason' for fill color with 6 values: bloomfilter, cardinality, datatype, extrema, failed_check, succeeded_check"><g transform="translate(418,0)"><path class="background" aria-hidden="true" d="M0,0h104v92h-104Z" pointer-events="none"/><g><g class="mark-group role-legend-entry"><g transform="translate(0,16)"><path class="background" aria-hidden="true" d="M0,0h0v0h0Z" pointer-events="none"/><g><g class="mark-group role-scope" role="graphics-object" aria-roledescription="group mark container"><g transform="translate(0,0)"><path class="background" aria-hidden="true" d="M0,0h103.96666717529297v11h-103.96666717529297Z" pointer-events="none" opacity="1"/><g><g class="mark-symbol role-legend-symbol" pointer-events="none"><path transform="translate(6,6)" d="M5,0A5,5,0,1,1,-5,0A5,5,0,1,1,5,0" fill="#4c78a8" stroke-width="1.5" opacity="0.7"/></g><g class="mark-text role-legend-label" pointer-events="none"><text text-anchor="start" transform="translate(16,9)" font-family="sans-serif" font-size="10px" fill="#000" opacity="1">bloomfilter</text></g></g><path class="foreground" aria-hidden="true" d="" pointer-events="none" display="none"/></g><g transform="translate(0,13)"><path class="background" aria-hidden="true" d="M0,0h103.96666717529297v11h-103.96666717529297Z" pointer-events="none" opacity="1"/><g><g class="mark-symbol role-legend-symbol" pointer-events="none"><path transform="translate(6,6)" d="M5,0A5,5,0,1,1,-5,0A5,5,0,1,1,5,0" fill="#f58518" stroke-width="1.5" opacity="0.7"/></g><g class="mark-text role-legend-label" pointer-events="none"><text text-anchor="start" transform="translate(16,9)" font-family="sans-serif" font-size="10px" fill="#000" opacity="1">cardinality</text></g></g><path class="foreground" aria-hidden="true" d="" pointer-events="none" display="none"/></g><g transform="translate(0,26)"><path class="background" aria-hidden="true" d="M0,0h103.96666717529297v11h-103.96666717529297Z" pointer-events="none" opacity="1"/><g><g class="mark-symbol role-legend-symbol" pointer-events="none"><path transform="translate(6,6)" d="M5,0A5,5,0,1,1,-5,0A5,5,0,1,1,5,0" fill="#e45756" stroke-width="1.5" opacity="0.7"/></g><g class="mark-text role-legend-label" pointer-events="none"><text text-anchor="start" transform="translate(16,9)" font-family="sans-serif" font-size="10px" fill="#000" opacity="1">datatype</text></g></g><path class="foreground" aria-hidden="true" d="" pointer-events="none" display="none"/></g><g transform="translate(0,39)"><path class="background" aria-hidden="true" d="M0,0h103.96666717529297v11h-103.96666717529297Z" pointer-events="none" opacity="1"/><g><g class="mark-symbol role-legend-symbol" pointer-events="none"><path transform="translate(6,6)" d="M5,0A5,5,0,1,1,-5,0A5,5,0,1,1,5,0" fill="#72b7b2" stroke-width="1.5" opacity="0.7"/></g><g class="mark-text role-legend-label" pointer-events="none"><text text-anchor="start" transform="translate(16,9)" font-family="sans-serif" font-size="10px" fill="#000" opacity="1">extrema</text></g></g><path class="foreground" aria-hidden="true" d="" pointer-events="none" display="none"/></g><g transform="translate(0,52)"><path class="background" aria-hidden="true" d="M0,0h103.96666717529297v11h-103.96666717529297Z" pointer-events="none" opacity="1"/><g><g class="mark-symbol role-legend-symbol" pointer-events="none"><path transform="translate(6,6)" d="M5,0A5,5,0,1,1,-5,0A5,5,0,1,1,5,0" fill="#54a24b" stroke-width="1.5" opacity="0.7"/></g><g class="mark-text role-legend-label" pointer-events="none"><text text-anchor="start" transform="translate(16,9)" font-family="sans-serif" font-size="10px" fill="#000" opacity="1">failed_check</text></g></g><path class="foreground" aria-hidden="true" d="" pointer-events="none" display="none"/></g><g transform="translate(0,65)"><path class="background" aria-hidden="true" d="M0,0h103.96666717529297v11h-103.96666717529297Z" pointer-events="none" opacity="1"/><g><g class="mark-symbol role-legend-symbol" pointer-events="none"><path transform="translate(6,6)" d="M5,0A5,5,0,1,1,-5,0A5,5,0,1,1,5,0" fill="#eeca3b" stroke-width="1.5" opacity="0.7"/></g><g class="mark-text role-legend-label" pointer-events="none"><text text-anchor="start" transform="translate(16,9)" font-family="sans-serif" font-size="10px" fill="#000" opacity="1">succeeded_check</text></g></g><path class="foreground" aria-hidden="true" d="" pointer-events="none" display="none"/></g></g></g><path class="foreground" aria-hidden="true" d="" pointer-events="none" display="none"/></g></g><g class="mark-text role-legend-title" pointer-events="none"><text text-anchor="start" transform="translate(0,9)" font-family="sans-serif" font-size="11px" font-weight="bold" fill="#000" opacity="1">reason</text></g></g><path class="foreground" aria-hidden="true" d="" pointer-events="none" display="none"/></g></g></g><path class="foreground" aria-hidden="true" d="" display="none"/></g></g></g></svg>