<svg xmlns="http://www.w3.org/2000/svg" xmlns:xlink="http://www.w3.org/1999/xlink" version="1.1" class="marks" width="583" height="357" viewBox="0 0 583 357"><rect width="583" height="357" fill="white"/><g fill="none" stroke-miterlimit="10" transform="translate(56,10)"><g class="mark-group role-frame root" role="graphics-object" aria-roledescription="group mark container"><g transform="translate(0,0)"><path class="background" aria-hidden="true" d="M0.5,0.5h400v300h-400Z" stroke="#ddd"/><g><g class="mark-group role-axis" aria-hidden="true"><g transform="translate(0.5,0.5)"><path class="background" aria-hidden="true" d="M0,0h0v0h0Z" pointer-events="none"/><g><g class="mark-rule role-axis-grid" pointer-events="none"><line transform="translate(0,300)" x2="400" y2="0" stroke="#ddd" stroke-width="1" opacity="1"/><line transform="translate(0,257)" x2="400" y2="0" stroke="#ddd" stroke-width="1" opacity="1"/><line transform="translate(0,214)" x2="400" y2="0" stroke="#ddd" stroke-width="1" opacity="1"/><line transform="translate(0,171)" x2="400" y2="0" stroke="#ddd" stroke-width="1" opacity="1"/><line transform="translate(0,129)" x2="400" y2="0" stroke="#ddd" stroke-width="1" opacity="1"/><line transform="translate(0,86)" x2="400" y2="0" stroke="#ddd" stroke-width="1" opacity="1"/><line transform="translate(0,43)" x2="400" y2="0" stroke="#ddd" stroke-width="1" opacity="1"/><line transform="translate(0,0)" x2="400" y2="0" stroke="#ddd" stroke-width="1" opacity="1"/></g></g><path class="foreground" aria-hidden="true" d="" pointer-events="none" display="none"/></g></g><g class="mark-group role-axis" role="graphics-symbol" aria-roledescription="axis" aria-label="X-axis titled 'timestamp' for a discrete scale with 33 values: 1, 3, 5, 6, 8, ending with 127"><g transform="translate(0.5,300.5)"><path class="background" aria-hidden="true" d="M0,0h0v0h0Z" pointer-events="none"/><g><g class="mark-rule role-axis-tick" pointer-events="none"><line transform="translate(6,0)" x2="0" y2="5" stroke="#888" stroke-width="1" opacity="1"/><line transform="translate(18,0)" x2="0" y2="5" stroke="#888" stroke-width="1" opacity="1"/><line transform="translate(30,0)" x2="0" y2="5" stroke="#888" stroke-width="1" opacity="1"/><line transform="translate(42,0)" x2="0" y2="5" stroke="#888" stroke-width="1" opacity="1"/><line transform="translate(55,0)" x2="0" y2="5" stroke="#888" stroke-width="1" opacity="1"/><line transform="translate(67,0)" x2="0" y2="5" stroke="#888" stroke-width="1" opacity="1"/><line transform="translate(79,0)" x2="0" y2="5" stroke="#888" stroke-width="1" opacity="1"/><line transform="translate(91,0)" x2="0" y2="5" stroke="#888" stroke-width="1" opacity="1"/><line transform="translate(103,0)" x2="0" y2="5" stroke="#888" stroke-width="1" opacity="1"/><line transform="translate(115,0)" x2="0" y2="5" stroke="#888" stroke-width="1" opacity="1"/><line transform="translate(127,0)" x2="0" y2="5" stroke="#888" stroke-width="1" opacity="1"/><line transform="translate(139,0)" x2="0" y2="5" stroke="#888" stroke-width="1" opacity="1"/><line transform="translate(152,0)" x2="0" y2="5" stroke="#888" stroke-width="1" opacity="1"/><line transform="translate(164,0)" x2="0" y2="5" stroke="#888" stroke-width="1" opacity="1"/><line transform="translate(176,0)" x2="0" y2="5" stroke="#888" stroke-width="1" opacity="1"/><line transform="translate(188,0)" x2="0" y2="5" stroke="#888" stroke-width="1" opacity="1"/><line transform="translate(200,0)" x2="0" y2="5" stroke="#888" stroke-width="1" opacity="1"/><line transform="translate(212,0)" x2="0" y2="5" stroke="#888" stroke-width="1" opacity="1"/><line transform="translate(224,0)" x2="0" y2="5" stroke="#888" stroke-width="1" opacity="1"/><line transform="translate(236,0)" x2="0" y2="5" stroke="#888" stroke-width="1" opacity="1"/><line transform="translate(248,0)" x2="0" y2="5" stroke="#888" stroke-width="1" opacity="1"/><line transform="translate(261,0)" x2="0" y2="5" stroke="#888" stroke-width="1" opacity="1"/><line transform="translate(273,0)" x2="0" y2="5" stroke="#888" stroke-width="1" opacity="1"/><line transform="translate(285,0)" x2="0" y2="5" stroke="#888" stroke-width="1" opacity="1"/><line transform="translate(297,0)" x2="0" y2="5" stroke="#888" stroke-width="1" opacity="1"/><line transform="translate(309,0)" x2="0" y2="5" stroke="#888" stroke-width="1" opacity="1"/><line transform="translate(321,0)" x2="0" y2="5" stroke="#888" stroke-width="1" opacity="1"/><line transform="translate(333,0)" x2="0" y2="5" stroke="#888" stroke-width="1" opacity="1"/><line transform="translate(345,0)" x2="0" y2="5" stroke="#888" stroke-width="1" opacity="1"/><line transform="translate(358,0)" x2="0" y2="5" stroke="#888" stroke-width="1" opacity="1"/><line transform="translate(370,0)" x2="0" y2="5" stroke="#888" stroke-width="1" opacity="1"/><line transform="translate(382,0)" x2="0" y2="5" stroke="#888" stroke-width="1" opacity="1"/><line transform="translate(394,0)" x2="0" y2="5" stroke="#888" stroke-width="1" opacity="1"/></g><g class="mark-text role-axis-label" pointer-events="none"><text text-anchor="end" transform="translate(6.060606060606062,7) rotate(270) translate(0,3)" font-family="sans-serif" font-size="10px" fill="#000" opacity="1">1</text><text text-anchor="end" transform="translate(18.181818181818183,7) rotate(270) translate(0,3)" font-family="sans-serif" font-size="10px" fill="#000" opacity="1">3</text><text text-anchor="end" transform="translate(30.303030303030305,7) rotate(270) translate(0,3)" font-family="sans-serif" font-size="10px" fill="#000" opacity="1">5</text><text text-anchor="end" transform="translate(42.42424242424242,7) rotate(270) translate(0,3)" font-family="sans-serif" font-size="10px" fill="#000" opacity="1">6</text><text text-anchor="end" transform="translate(54.54545454545455,7) rotate(270) translate(0,3)" font-family="sans-serif" font-size="10px" fill="#000" opacity="1">8</text><text text-anchor="end" transform="translate(66.66666666666667,7) rotate(270) translate(0,3)" font-family="sans-serif" font-size="10px" fill="#000" opacity="1">10</text><text text-anchor="end" transform="translate(78.78787878787878,7) rotate(270) translate(0,3)" font-family="sans-serif" font-size="10px" fill="#000" opacity="1">12</text><text text-anchor="end" transform="translate(90.9090909090909,7) rotate(270) translate(0,3)" font-family="sans-serif" font-size="10px" fill="#000" opacity="1">14</text><text text-anchor="end" transform="translate(103.03030303030303,7) rotate(270) translate(0,3)" font-family="sans-serif" font-size="10px" fill="#000" opacity="1">16</text><text text-anchor="end" transform="translate(115.15151515151516,7) rotate(270) translate(0,3)" font-family="sans-serif" font-size="10px" fill="#000" opacity="1">19</text><text text-anchor="end" transform="translate(127.27272727272728,7) rotate(270) translate(0,3)" font-family="sans-serif" font-size="10px" fill="#000" opacity="1">22</text><text text-anchor="end" transform="translate(139.3939393939394,7) rotate(270) translate(0,3)" font-family="sans-serif" font-size="10px" fill="#000" opacity="1">24</text><text text-anchor="end" transform="translate(151.5151515151515,7) rotate(270) translate(0,3)" font-family="sans-serif" font-size="10px" fill="#000" opacity="1">27</text><text text-anchor="end" transform="translate(163.63636363636363,7) rotate(270) translate(0,3)" font-family="sans-serif" font-size="10px" fill="#000" opacity="1">30</text><text text-anchor="end" transform="translate(175.75757575757575,7) rotate(270) translate(0,3)" font-family="sans-serif" font-size="10px" fill="#000" opacity="1">33</text><text text-anchor="end" transform="translate(187.87878787878788,7) rotate(270) translate(0,3)" font-family="sans-serif" font-size="10px" fill="#000" opacity="1">34</text><text text-anchor="end" transform="translate(200,7) rotate(270) translate(0,3)" font-family="sans-serif" font-size="10px" fill="#000" opacity="1">37</text><text text-anchor="end" transform="translate(212.12121212121212,7) rotate(270) translate(0,3)" font-family="sans-serif" font-size="10px" fill="#000" opacity="1">41</text><text text-anchor="end" transform="translate(224.24242424242425,7) rotate(270) translate(0,3)" font-family="sans-serif" font-size="10px" fill="#000" opacity="1">45</text><text text-anchor="end" transform="translate(236.36363636363637,7) rotate(270) translate(0,3)" font-family="sans-serif" font-size="10px" fill="#000" opacity="1">49</text><text text-anchor="end" transform="translate(248.4848484848485,7) rotate(270) translate(0,3)" font-family="sans-serif" font-size="10px" fill="#000" opacity="1">54</text><text text-anchor="end" transform="translate(260.6060606060606,7) rotate(270) translate(0,3)" font-family="sans-serif" font-size="10px" fill="#000" opacity="1">58</text><text text-anchor="end" transform="translate(272.72727272727275,7) rotate(270) translate(0,3)" font-family="sans-serif" font-size="10px" fill="#000" opacity="1">63</text><text text-anchor="end" transform="translate(284.8484848484849,7) rotate(270) translate(0,3)" font-family="sans-serif" font-size="10px" fill="#000" opacity="1">68</text><text text-anchor="end" transform="translate(296.96969696969694,7) rotate(270) translate(0,3)" font-family="sans-serif" font-size="10px" fill="#000" opacity="1">69</text><text text-anchor="end" transform="translate(309.09090909090907,7) rotate(270) translate(0,3)" font-family="sans-serif" font-size="10px" fill="#000" opacity="1">74</text><text text-anchor="end" transform="translate(321.2121212121212,7) rotate(270) translate(0,3)" font-family="sans-serif" font-size="10px" fill="#000" opacity="1">81</text><text text-anchor="end" transform="translate(333.3333333333333,7) rotate(270) translate(0,3)" font-family="sans-serif" font-size="10px" fill="#000" opacity="1">87</text><text text-anchor="end" transform="translate(345.45454545454544,7) rotate(270) translate(0,3)" font-family="sans-serif" font-size="10px" fill="#000" opacity="1">94</text><text text-anchor="end" transform="translate(357.57575757575756,7) rotate(270) translate(0,3)" font-family="sans-serif" font-size="10px" fill="#000" opacity="1">102</text><text text-anchor="end" transform="translate(369.6969696969697,7) rotate(270) translate(0,3)" font-family="sans-serif" font-size="10px" fill="#000" opacity="1">110</text><text text-anchor="end" transform="translate(381.8181818181818,7) rotate(270) translate(0,3)" font-family="sans-serif" font-size="10px" fill="#000" opacity="1">118</text><text text-anchor="end" transform="translate(393.93939393939394,7) rotate(270) translate(0,3)" font-family="sans-serif" font-size="10px" fill="#000" opacity="1">127</text></g><g class="mark-rule role-axis-domain" pointer-events="none"><line transform="translate(0,0)" x2="400" y2="0" stroke="#888" stroke-width="1" opacity="1"/></g><g class="mark-text role-axis-title" pointer-events="none"><text text-anchor="middle" transform="translate(200,39.10000038146973)" font-family="sans-serif" font-size="11px" font-weight="bold" fill="#000" opacity="1">timestamp</text></g></g><path class="foreground" aria-hidden="true" d="" pointer-events="none" display="none"/></g></g><g class="mark-group role-axis" role="graphics-symbol" aria-roledescription="axis" aria-label="Y-axis titled 'generated candidates' for a linear scale with values from 0 to 3,500"><g transform="translate(0.5,0.5)"><path class="background" aria-hidden="true" d="M0,0h0v0h0Z" pointer-events="none"/><g><g class="mark-rule role-axis-tick" pointer-events="none"><line transform="translate(0,300)" x2="-5" y2="0" stroke="#888" stroke-width="1" opacity="1"/><line transform="translate(0,257)" x2="-5" y2="0" stroke="#888" stroke-width="1" opacity="1"/><line transform="translate(0,214)" x2="-5" y2="0" stroke="#888" stroke-width="1" opacity="1"/><line transform="translate(0,171)" x2="-5" y2="0" stroke="#888" stroke-width="1" opacity="1"/><line transform="translate(0,129)" x2="-5" y2="0" stroke="#888" stroke-width="1" opacity="1"/><line transform="translate(0,86)" x2="-5" y2="0" stroke="#888" stroke-width="1" opacity="1"/><line transform="translate(0,43)" x2="-5" y2="0" stroke="#888" stroke-width="1" opacity="1"/><line transform="translate(0,0)" x2="-5" y2="0" stroke="#888" stroke-width="1" opacity="1"/></g><g class="mark-text role-axis-label" pointer-events="none"><text text-anchor="end" transform="translate(-7,303)" font-family="sans-serif" font-size="10px" fill="#000" opacity="1">0</text><text text-anchor="end" transform="translate(-7,260.14285714285717)" font-family="sans-serif" font-size="10px" fill="#000" opacity="1">500</text><text text-anchor="end" transform="translate(-7,217.28571428571428)" font-family="sans-serif" font-size="10px" fill="#000" opacity="1">1,000</text><text text-anchor="end" transform="translate(-7,174.42857142857142)" font-family="sans-serif" font-size="10px" fill="#000" opacity="1">1,500</text><text text-anchor="end" transform="translate(-7,131.57142857142858)" font-family="sans-serif" font-size="10px" fill="#000" opacity="1">2,000</text><text text-anchor="end" transform="translate(-7,88.71428571428571)" font-family="sans-serif" font-size="10px" fill="#000" opacity="1">2,500</text><text text-anchor="end" transform="translate(-7,45.85714285714287)" font-family="sans-serif" font-size="10px" fill="#000" opacity="1">3,000</text><text text-anchor="end" transform="translate(-7,3)" font-family="sans-serif" font-size="10px" fill="#000" opacity="1">3,500</text></g><g class="mark-rule role-axis-domain" pointer-events="none"><line transform="translate(0,300)" x2="0" y2="-300" stroke="#888" stroke-width="1" opacity="1"/></g><g class="mark-text role-axis-title" pointer-events="none"><text text-anchor="middle" transform="translate(-39.64999961853027,150) rotate(-90) translate(0,-2)" font-family="sans-serif" font-size="11px" font-weight="bold" fill="#000" opacity="1">generated candidates</text></g></g><path class="foreground" aria-hidden="true" d="" pointer-events="none" display="none"/></g></g><g class="mark-group role-scope pathgroup" role="graphics-object" aria-roledescription="group mark container"><g transform="translate(0,0)"><path class="background" aria-hidden="true" d="M0,0h400v300h-400Z"/><g><g class="mark-area role-mark marks" role="graphics-object" aria-roledescription="area mark container"><path aria-label="reason: cardinality; timestamp: 1; generated candidates: 1669" role="graphics-symbol" aria-roledescription="area mark" d="M6.060606060606062,46.88571428571427L18.181818181818183,105.34285714285713L30.303030303030305,135.94285714285715L42.42424242424242,140.82857142857142L54.54545454545455,144.85714285714286L66.66666666666667,146.91428571428574L78.78787878787878,149.14285714285714L90.9090909090909,150.94285714285712L103.03030303030303,151.11428571428573L115.15151515151516,147.25714285714287L127.27272727272728,153.42857142857144L139.3939393939394,194.57142857142858L151.5151515151515,229.37142857142857L163.63636363636363,221.31428571428572L175.75757575757575,226.88571428571427L187.87878787878788,298.45714285714286L200,217.54285714285712L212.12121212121212,221.4L224.24242424242425,229.37142857142857L236.36363636363637,229.37142857142857L248.4848484848485,225.51428571428573L260.6060606060606,225.34285714285713L272.72727272727275,225.34285714285713L284.8484848484849,229.8L296.96969696969694,295.54285714285714L309.09090909090907,229.37142857142857L321.2121212121212,229.37142857142857L333.3333333333333,229.37142857142857L345.45454545454544,225.34285714285713L357.57575757575756,229.37142857142857L369.6969696969697,233.48571428571427L381.8181818181818,263.3142857142857L393.93939393939394,267.77142857142854L393.93939393939394,285.85714285714283L381.8181818181818,282.6857142857143L369.6969696969697,270.6L357.57575757575756,266.74285714285713L345.45454545454544,265.2857142857143L333.3333333333333,266.74285714285713L321.2121212121212,266.74285714285713L309.09090909090907,266.74285714285713L296.96969696969694,295.54285714285714L284.8484848484849,269.74285714285713L272.72727272727275,265.2857142857143L260.6060606060606,265.2857142857143L248.4848484848485,265.2857142857143L236.36363636363637,266.74285714285713L224.24242424242425,266.74285714285713L212.12121212121212,263.1428571428571L200,261.6L187.87878787878788,298.45714285714286L175.75757575757575,266.8285714285714L163.63636363636363,263.74285714285713L151.5151515151515,266.74285714285713L139.3939393939394,252.85714285714286L127.27272727272728,234.0857142857143L115.15151515151516,233.4L103.03030303030303,234.8571428571429L90.9090909090909,235.0285714285714L78.78787878787878,235.54285714285714L66.66666666666667,234.0857142857143L54.54545454545455,232.8L42.42424242424242,231.85714285714286L30.303030303030305,228L18.181818181818183,215.74285714285713L6.060606060606062,189.94285714285712Z" fill="#f58518" opacity="0.7"/></g></g><path class="foreground" aria-hidden="true" d="" display="none"/></g><g transform="translate(0,0)"><path class="background" aria-hidden="true" d="M0,0h400v300h-400Z"/><g><g class="mark-area role-mark marks" role="graphics-object" aria-roledescription="area mark container"><path aria-label="reason: extrema; timestamp: 1; generated candidates: 830" role="graphics-symbol" aria-roledescription="area mark" d="M6.060606060606062,227.57142857142856L18.181818181818183,246.42857142857142L30.303030303030305,254.14285714285717L42.42424242424242,256.2L54.54545454545455,255.94285714285715L66.66666666666667,256.37142857142857L78.78787878787878,257.57142857142856L90.9090909090909,256.8L103.03030303030303,256.62857142857143L115.15151515151516,255.94285714285715L127.27272727272728,255.77142857142857L139.3939393939394,268.45714285714286L151.5151515151515,276.0857142857143L163.63636363636363,276L175.75757575757575,277.62857142857143L187.87878787878788,298.45714285714286L200,274.54285714285714L212.12121212121212,274.54285714285714L224.24242424242425,275.8285714285714L236.36363636363637,275.40000000000003L248.4848484848485,275.40000000000003L260.6060606060606,275.40000000000003L272.72727272727275,275.40000000000003L284.8484848484849,279.7714285714286L296.96969696969694,295.54285714285714L309.09090909090907,275.3142857142857L321.2121212121212,275.3142857142857L333.3333333333333,275.3142857142857L345.45454545454544,275.3142857142857L357.57575757575756,275.3142857142857L369.6969696969697,278.8285714285714L381.8181818181818,287.4L393.93939393939394,290.31428571428575L393.93939393939394,296.9142857142857L381.8181818181818,295.9714285714286L369.6969696969697,294.25714285714287L357.57575757575756,293.1428571428571L345.45454545454544,293.2285714285714L333.3333333333333,293.2285714285714L321.2121212121212,293.2285714285714L309.09090909090907,293.2285714285714L296.96969696969694,295.54285714285714L284.8484848484849,297.6857142857143L272.72727272727275,293.2285714285714L260.6060606060606,293.2285714285714L248.4848484848485,293.2285714285714L236.36363636363637,293.2285714285714L224.24242424242425,293.31428571428575L212.12121212121212,293.31428571428575L200,293.31428571428575L187.87878787878788,298.45714285714286L175.75757575757575,294.9428571428571L163.63636363636363,293.4L151.5151515151515,293.48571428571427L139.3939393939394,292.37142857142857L127.27272727272728,290.31428571428575L115.15151515151516,290.48571428571427L103.03030303030303,291.25714285714287L90.9090909090909,293.4L78.78787878787878,294.77142857142854L66.66666666666667,295.37142857142857L54.54545454545455,296.65714285714284L42.42424242424242,298.37142857142857L30.303030303030305,299.57142857142856L18.181818181818183,299.9142857142857L6.060606060606062,298.7142857142857Z" fill="#72b7b2" opacity="0.7"/></g></g><path class="foreground" aria-hidden="true" d="" display="none"/></g><g transform="translate(0,0)"><path class="background" aria-hidden="true" d="M0,0h400v300h-400Z"/><g><g class="mark-area role-mark marks" role="graphics-object" aria-roledescription="area mark container"><path aria-label="reason: datatype; timestamp: 1; generated candidates: 439" role="graphics-symbol" aria-roledescription="area mark" d="M6.060606060606062,189.94285714285712L18.181818181818183,215.74285714285713L30.303030303030305,228L42.42424242424242,231.85714285714286L54.54545454545455,232.8L66.66666666666667,234.0857142857143L78.78787878787878,235.54285714285714L90.9090909090909,235.0285714285714L103.03030303030303,234.8571428571429L115.15151515151516,233.4L127.27272727272728,234.0857142857143L139.3939393939394,252.85714285714286L151.5151515151515,266.74285714285713L163.63636363636363,263.74285714285713L175.75757575757575,266.8285714285714L187.87878787878788,298.45714285714286L200,261.6L212.12121212121212,263.1428571428571L224.24242424242425,266.74285714285713L236.36363636363637,266.74285714285713L248.4848484848485,265.2857142857143L260.6060606060606,265.2857142857143L272.72727272727275,265.2857142857143L284.8484848484849,269.74285714285713L296.96969696969694,295.54285714285714L309.09090909090907,266.74285714285713L321.2121212121212,266.74285714285713L333.3333333333333,266.74285714285713L345.45454545454544,265.2857142857143L357.57575757575756,266.74285714285713L369.6969696969697,270.6L381.8181818181818,282.6857142857143L393.93939393939394,285.85714285714283L393.93939393939394,290.31428571428575L381.8181818181818,287.4L369.6969696969697,278.8285714285714L357.57575757575756,275.3142857142857L345.45454545454544,275.3142857142857L333.3333333333333,275.3142857142857L321.2121212121212,275.3142857142857L309.09090909090907,275.3142857142857L296.96969696969694,295.54285714285714L284.8484848484849,279.7714285714286L272.72727272727275,275.40000000000003L260.6060606060606,275.40000000000003L248.4848484848485,275.40000000000003L236.36363636363637,275.40000000000003L224.24242424242425,275.8285714285714L212.12121212121212,274.54285714285714L200,274.54285714285714L187.87878787878788,298.45714285714286L175.75757575757575,277.62857142857143L163.63636363636363,276L151.5151515151515,276.0857142857143L139.3939393939394,268.45714285714286L127.27272727272728,255.77142857142857L115.15151515151516,255.94285714285715L103.03030303030303,256.62857142857143L90.9090909090909,256.8L78.78787878787878,257.57142857142856L66.66666666666667,256.37142857142857L54.54545454545455,255.94285714285715L42.42424242424242,256.2L30.303030303030305,254.14285714285717L18.181818181818183,246.42857142857142L6.060606060606062,227.57142857142856Z" fill="#e45756" opacity="0.7"/></g></g><path class="foreground" aria-hidden="true" d="" display="none"/></g><g transform="translate(0,0)"><path class="background" aria-hidden="true" d="M0,0h400v300h-400Z"/><g><g class="mark-area role-mark marks" role="graphics-object" aria-roledescription="area mark container"><path aria-label="reason: bloomfilter; timestamp: 1; generated candidates: 127" role="graphics-symbol" aria-roledescription="area mark" d="M6.060606060606062,36L18.181818181818183,93.94285714285715L30.303030303030305,126.5142857142857L42.42424242424242,132.17142857142858L54.54545454545455,138.0857142857143L66.66666666666667,141.0857142857143L78.78787878787878,144L90.9090909090909,147L103.03030303030303,150L115.15151515151516,146.91428571428574L127.27272727272728,153.25714285714287L139.3939393939394,194.4L151.5151515151515,229.37142857142857L163.63636363636363,221.31428571428572L175.75757575757575,226.88571428571427L187.87878787878788,298.45714285714286L200,217.54285714285712L212.12121212121212,221.4L224.24242424242425,229.37142857142857L236.36363636363637,229.37142857142857L248.4848484848485,225.51428571428573L260.6060606060606,225.34285714285713L272.72727272727275,225.34285714285713L284.8484848484849,229.8L296.96969696969694,295.54285714285714L309.09090909090907,229.37142857142857L321.2121212121212,229.37142857142857L333.3333333333333,229.37142857142857L345.45454545454544,225.34285714285713L357.57575757575756,229.37142857142857L369.6969696969697,233.48571428571427L381.8181818181818,263.3142857142857L393.93939393939394,267.77142857142854L393.93939393939394,267.77142857142854L381.8181818181818,263.3142857142857L369.6969696969697,233.48571428571427L357.57575757575756,229.37142857142857L345.45454545454544,225.34285714285713L333.3333333333333,229.37142857142857L321.2121212121212,229.37142857142857L309.09090909090907,229.37142857142857L296.96969696969694,295.54285714285714L284.8484848484849,229.8L272.72727272727275,225.34285714285713L260.6060606060606,225.34285714285713L248.4848484848485,225.51428571428573L236.36363636363637,229.37142857142857L224.24242424242425,229.37142857142857L212.12121212121212,221.4L200,217.54285714285712L187.87878787878788,298.45714285714286L175.75757575757575,226.88571428571427L163.63636363636363,221.31428571428572L151.5151515151515,229.37142857142857L139.3939393939394,194.57142857142858L127.27272727272728,153.42857142857144L115.15151515151516,147.25714285714287L103.03030303030303,151.11428571428573L90.9090909090909,150.94285714285712L78.78787878787878,149.14285714285714L66.66666666666667,146.91428571428574L54.54545454545455,144.85714285714286L42.42424242424242,140.82857142857142L30.303030303030305,135.94285714285715L18.181818181818183,105.34285714285713L6.060606060606062,46.88571428571427Z" fill="#4c78a8" opacity="0.7"/></g></g><path class="foreground" aria-hidden="true" d="" display="none"/></g><g transform="translate(0,0)"><path class="background" aria-hidden="true" d="M0,0h400v300h-400Z"/><g><g class="mark-area role-mark marks" role="graphics-object" aria-roledescription="area mark container"><path aria-label="reason: succeeded_check; timestamp: 1; generated candidates: 15" role="graphics-symbol" aria-roledescription="area mark" d="M6.060606060606062,298.7142857142857L18.181818181818183,300L30.303030303030305,300L42.42424242424242,300L54.54545454545455,299.8285714285714L66.66666666666667,299.74285714285713L78.78787878787878,299.74285714285713L90.9090909090909,299.74285714285713L103.03030303030303,300L115.15151515151516,300L127.27272727272728,300L139.3939393939394,300L151.5151515151515,300L163.63636363636363,300L175.75757575757575,300L187.87878787878788,300L200,300L212.12121212121212,300L224.24242424242425,300L236.36363636363637,300L248.4848484848485,300L260.6060606060606,300L272.72727272727275,299.9142857142857L284.8484848484849,299.9142857142857L296.96969696969694,300L309.09090909090907,299.9142857142857L321.2121212121212,299.9142857142857L333.3333333333333,299.9142857142857L345.45454545454544,299.9142857142857L357.57575757575756,299.74285714285713L369.6969696969697,300L381.8181818181818,300L393.93939393939394,300L393.93939393939394,300L381.8181818181818,300L369.6969696969697,300L357.57575757575756,300L345.45454545454544,300L333.3333333333333,300L321.2121212121212,300L309.09090909090907,300L296.96969696969694,300L284.8484848484849,300L272.72727272727275,300L260.6060606060606,300L248.4848484848485,300L236.36363636363637,300L224.24242424242425,300L212.12121212121212,300L200,300L187.87878787878788,300L175.75757575757575,300L163.63636363636363,300L151.5151515151515,300L139.3939393939394,300L127.27272727272728,300L115.15151515151516,300L103.03030303030303,300L90.9090909090909,300L78.78787878787878,300L66.66666666666667,300L54.54545454545455,300L42.42424242424242,300L30.303030303030305,300L18.181818181818183,300L6.060606060606062,300Z" fill="#eeca3b" opacity="0.7"/></g></g><path class="foreground" aria-hidden="true" d="" display="none"/></g><g transform="translate(0,0)"><path class="background" aria-hidden="true" d="M0,0h400v300h-400Z"/><g><g class="mark-area role-mark marks" role="graphics-object" aria-roledescription="area mark container"><path aria-label="reason: failed_check; timestamp: 1; generated candidates: 0" role="graphics-symbol" aria-roledescription="area mark" d="M6.060606060606062,298.7142857142857L18.181818181818183,299.9142857142857L30.303030303030305,299.57142857142856L42.42424242424242,298.37142857142857L54.54545454545455,296.65714285714284L66.66666666666667,295.37142857142857L78.78787878787878,294.77142857142854L90.9090909090909,293.4L103.03030303030303,291.25714285714287L115.15151515151516,290.48571428571427L127.27272727272728,290.31428571428575L139.3939393939394,292.37142857142857L151.5151515151515,293.48571428571427L163.63636363636363,293.4L175.75757575757575,294.9428571428571L187.87878787878788,298.45714285714286L200,293.31428571428575L212.12121212121212,293.31428571428575L224.24242424242425,293.31428571428575L236.36363636363637,293.2285714285714L248.4848484848485,293.2285714285714L260.6060606060606,293.2285714285714L272.72727272727275,293.2285714285714L284.8484848484849,297.6857142857143L296.96969696969694,295.54285714285714L309.09090909090907,293.2285714285714L321.2121212121212,293.2285714285714L333.3333333333333,293.2285714285714L345.45454545454544,293.2285714285714L357.57575757575756,293.1428571428571L369.6969696969697,294.25714285714287L381.8181818181818,295.9714285714286L393.93939393939394,296.9142857142857L393.93939393939394,300L381.8181818181818,300L369.6969696969697,300L357.57575757575756,299.74285714285713L345.45454545454544,299.9142857142857L333.3333333333333,299.9142857142857L321.2121212121212,299.9142857142857L309.09090909090907,299.9142857142857L296.96969696969694,300L284.8484848484849,299.9142857142857L272.72727272727275,299.9142857142857L260.6060606060606,300L248.4848484848485,300L236.36363636363637,300L224.24242424242425,300L212.12121212121212,300L200,300L187.87878787878788,300L175.75757575757575,300L163.63636363636363,300L151.5151515151515,300L139.3939393939394,300L127.27272727272728,300L115.15151515151516,300L103.03030303030303,300L90.9090909090909,299.74285714285713L78.78787878787878,299.74285714285713L66.66666666666667,299.74285714285713L54.54545454545455,299.8285714285714L42.42424242424242,300L30.303030303030305,300L18.181818181818183,300L6.060606060606062,298.7142857142857Z" fill="#54a24b" opacity="0.7"/></g></g><path class="foreground" aria-hidden="true" d="" display="none"/></g></g><g class="mark-group role-legend" role="graphics-symbol" aria-roledescription="legend" aria-label="Symbol legend titled 'reason' for fill color with 6 values: bloomfilter, cardinality, datatype, extrema, failed_check, succeeded_check"><g transform="translate(418,0)"><path class="background" aria-hidden="true" d="M0,0h104v92h-104Z" pointer-events="none"/><g><g class="mark-group role-legend-entry"><g transform="translate(0,16)"><path class="background" aria-hidden="true" d="M0,0h0v0h0Z" pointer-events="none"/><g><g class="mark-group role-scope" role="graphics-object" aria-roledescription="group mark container"><g transform="translate(0,0)"><path class="background" aria-hidden="true" d="M0,0h103.96666717529297v11h-103.96666717529297Z" pointer-events="none" opacity="1"/><g><g class="mark-symbol role-legend-symbol" pointer-events="none"><path transform="translate(6,6)" d="M5,0A5,5,0,1,1,-5,0A5,5,0,1,1,5,0" fill="#4c78a8" stroke-width="1.5" opacity="0.7"/></g><g class="mark-text role-legend-label" pointer-events="none"><text text-anchor="start" transform="translate(16,9)" font-family="sans-serif" font-size="10px" fill="#000" opacity="1">bloomfilter</text></g></g><path class="foreground" aria-hidden="true" d="" pointer-events="none" display="none"/></g><g transform="translate(0,13)"><path class="background" aria-hidden="true" d="M0,0h103.96666717529297v11h-103.96666717529297Z" pointer-events="none" opacity="1"/><g><g class="mark-symbol role-legend-symbol" pointer-events="none"><path transform="translate(6,6)" d="M5,0A5,5,0,1,1,-5,0A5,5,0,1,1,5,0" fill="#f58518" stroke-width="1.5" opacity="0.7"/></g><g class="mark-text role-legend-label" pointer-events="none"><text text-anchor="start" transform="translate(16,9)" font-family="sans-serif" font-size="10px" fill="#000" opacity="1">cardinality</text></g></g><path class="foreground" aria-hidden="true" d="" pointer-events="none" display="none"/></g><g transform="translate(0,26)"><path class="background" aria-hidden="true" d="M0,0h103.96666717529297v11h-103.96666717529297Z" pointer-events="none" opacity="1"/><g><g class="mark-symbol role-legend-symbol" pointer-events="none"><path transform="translate(6,6)" d="M5,0A5,5,0,1,1,-5,0A5,5,0,1,1,5,0" fill="#e45756" stroke-width="1.5" opacity="0.7"/></g><g class="mark-text role-legend-label" pointer-events="none"><text text-anchor="start" transform="translate(16,9)" font-family="sans-serif" font-size="10px" fill="#000" opacity="1">datatype</text></g></g><path class="foreground" aria-hidden="true" d="" pointer-events="none" display="none"/></g><g transform="translate(0,39)"><path class="background" aria-hidden="true" d="M0,0h103.96666717529297v11h-103.96666717529297Z" pointer-events="none" opacity="1"/><g><g class="mark-symbol role-legend-symbol" pointer-events="none"><path transform="translate(6,6)" d="M5,0A5,5,0,1,1,-5,0A5,5,0,1,1,5,0" fill="#72b7b2" stroke-width="1.5" opacity="0.7"/></g><g class="mark-text role-legend-label" pointer-events="none"><text text-anchor="start" transform="translate(16,9)" font-family="sans-serif" font-size="10px" fill="#000" opacity="1">extrema</text></g></g><path class="foreground" aria-hidden="true" d="" pointer-events="none" display="none"/></g><g transform="translate(0,52)"><path class="background" aria-hidden="true" d="M0,0h103.96666717529297v11h-103.96666717529297Z" pointer-events="none" opacity="1"/><g><g class="mark-symbol role-legend-symbol" pointer-events="none"><path transform="translate(6,6)" d="M5,0A5,5,0,1,1,-5,0A5,5,0,1,1,5,0" fill="#54a24b" stroke-width="1.5" opacity="0.7"/></g><g class="mark-text role-legend-label" pointer-events="none"><text text-anchor="start" transform="translate(16,9)" font-family="sans-serif" font-size="10px" fill="#000" opacity="1">failed_check</text></g></g><path class="foreground" aria-hidden="true" d="" pointer-events="none" display="none"/></g><g transform="translate(0,65)"><path class="background" aria-hidden="true" d="M0,0h103.96666717529297v11h-103.96666717529297Z" pointer-events="none" opacity="1"/><g><g class="mark-symbol role-legend-symbol" pointer-events="none"><path transform="translate(6,6)" d="M5,0A5,5,0,1,1,-5,0A5,5,0,1,1,5,0" fill="#eeca3b" stroke-width="1.5" opacity="0.7"/></g><g class="mark-text role-legend-label" pointer-events="none"><text text-anchor="start" transform="translate(16,9)" font-family="sans-serif" font-size="10px" fill="#000" opacity="1">succeeded_check</text></g></g><path class="foreground" aria-hidden="true" d="" pointer-events="none" display="none"/></g></g></g><path class="foreground" aria-hidden="true" d="" pointer-events="none" display="none"/></g></g><g class="mark-text role-legend-title" pointer-events="none"><text text-anchor="start" transform="translate(0,9)" font-family="sans-serif" font-size="11px" font-weight="bold" fill="#000" opacity="1">reason</text></g></g><path class="foreground" aria-hidden="true" d="" pointer-events="none" display="none"/></g></g></g><path class="foreground" aria-hidden="true" d="" display="none"/></g></g></g></svg>