<svg xmlns="http://www.w3.org/2000/svg" xmlns:xlink="http://www.w3.org/1999/xlink" version="1.1" class="marks" width="583" height="357" viewBox="0 0 583 357"><rect width="583" height="357" fill="white"/><g fill="none" stroke-miterlimit="10" transform="translate(56,10)"><g class="mark-group role-frame root" role="graphics-object" aria-roledescription="group mark container"><g transform="translate(0,0)"><path class="background" aria-hidden="true" d="M0.5,0.5h400v300h-400Z" stroke="#ddd"/><g><g class="mark-group role-axis" aria-hidden="true"><g transform="translate(0.5,0.5)"><path class="background" aria-hidden="true" d="M0,0h0v0h0Z" pointer-events="none"/><g><g class="mark-rule role-axis-grid" pointer-events="none"><line transform="translate(0,300)" x2="400" y2="0" stroke="#ddd" stroke-width="1" opacity="1"/><line transform="translate(0,257)" x2="400" y2="0" stroke="#ddd" stroke-width="1" opacity="1"/><line transform="translate(0,214)" x2="400" y2="0" stroke="#ddd" stroke-width="1" opacity="1"/><line transform="translate(0,171)" x2="400" y2="0" stroke="#ddd" stroke-width="1" opacity="1"/><line transform="translate(0,129)" x2="400" y2="0" stroke="#ddd" stroke-width="1" opacity="1"/><line transform="translate(0,86)" x2="400" y2="0" stroke="#ddd" stroke-width="1" opacity="1"/><line transform="translate(0,43)" x2="400" y2="0" stroke="#ddd" stroke-width="1" opacity="1"/><line transform="translate(0,0)" x2="400" y2="0" stroke="#ddd" stroke-width="1" opacity="1"/></g></g><path class="foreground" aria-hidden="true" d="" pointer-events="none" display="none"/></g></g><g class="mark-group role-axis" role="graphics-symbol" aria-roledescription="axis" aria-label="X-axis titled 'timestamp' for a discrete scale with 40 values: 1, 3, 5, 7, 9, ending with 465"><g transform="translate(0.5,300.5)"><path class="background" aria-hidden="true" d="M0,0h0v0h0Z" pointer-events="none"/><g><g class="mark-rule role-axis-tick" pointer-events="none"><line transform="translate(5,0)" x2="0" y2="5" stroke="#888" stroke-width="1" opacity="1"/><line transform="translate(15,0)" x2="0" y2="5" stroke="#888" stroke-width="1" opacity="1"/><line transform="translate(25,0)" x2="0" y2="5" stroke="#888" stroke-width="1" opacity="1"/><line transform="translate(35,0)" x2="0" y2="5" stroke="#888" stroke-width="1" opacity="1"/><line transform="translate(45,0)" x2="0" y2="5" stroke="#888" stroke-width="1" opacity="1"/><line transform="translate(55,0)" x2="0" y2="5" stroke="#888" stroke-width="1" opacity="1"/><line transform="translate(65,0)" x2="0" y2="5" stroke="#888" stroke-width="1" opacity="1"/><line transform="translate(75,0)" x2="0" y2="5" stroke="#888" stroke-width="1" opacity="1"/><line transform="translate(85,0)" x2="0" y2="5" stroke="#888" stroke-width="1" opacity="1"/><line transform="translate(95,0)" x2="0" y2="5" stroke="#888" stroke-width="1" opacity="1"/><line transform="translate(105,0)" x2="0" y2="5" stroke="#888" stroke-width="1" opacity="1"/><line transform="translate(115,0)" x2="0" y2="5" stroke="#888" stroke-width="1" opacity="1"/><line transform="translate(125,0)" x2="0" y2="5" stroke="#888" stroke-width="1" opacity="1"/><line transform="translate(135,0)" x2="0" y2="5" stroke="#888" stroke-width="1" opacity="1"/><line transform="translate(145,0)" x2="0" y2="5" stroke="#888" stroke-width="1" opacity="1"/><line transform="translate(155,0)" x2="0" y2="5" stroke="#888" stroke-width="1" opacity="1"/><line transform="translate(165,0)" x2="0" y2="5" stroke="#888" stroke-width="1" opacity="1"/><line transform="translate(175,0)" x2="0" y2="5" stroke="#888" stroke-width="1" opacity="1"/><line transform="translate(185,0)" x2="0" y2="5" stroke="#888" stroke-width="1" opacity="1"/><line transform="translate(195,0)" x2="0" y2="5" stroke="#888" stroke-width="1" opacity="1"/><line transform="translate(205,0)" x2="0" y2="5" stroke="#888" stroke-width="1" opacity="1"/><line transform="translate(215,0)" x2="0" y2="5" stroke="#888" stroke-width="1" opacity="1"/><line transform="translate(225,0)" x2="0" y2="5" stroke="#888" stroke-width="1" opacity="1"/><line transform="translate(235,0)" x2="0" y2="5" stroke="#888" stroke-width="1" opacity="1"/><line transform="translate(245,0)" x2="0" y2="5" stroke="#888" stroke-width="1" opacity="1"/><line transform="translate(255,0)" x2="0" y2="5" stroke="#888" stroke-width="1" opacity="1"/><line transform="translate(265,0)" x2="0" y2="5" stroke="#888" stroke-width="1" opacity="1"/><line transform="translate(275,0)" x2="0" y2="5" stroke="#888" stroke-width="1" opacity="1"/><line transform="translate(285,0)" x2="0" y2="5" stroke="#888" stroke-width="1" opacity="1"/><line transform="translate(295,0)" x2="0" y2="5" stroke="#888" stroke-width="1" opacity="1"/><line transform="translate(305,0)" x2="0" y2="5" stroke="#888" stroke-width="1" opacity="1"/><line transform="translate(315,0)" x2="0" y2="5" stroke="#888" stroke-width="1" opacity="1"/><line transform="translate(325,0)" x2="0" y2="5" stroke="#888" stroke-width="1" opacity="1"/><line transform="translate(335,0)" x2="0" y2="5" stroke="#888" stroke-width="1" opacity="1"/><line transform="translate(345,0)" x2="0" y2="5" stroke="#888" stroke-width="1" opacity="1"/><line transform="translate(355,0)" x2="0" y2="5" stroke="#888" stroke-width="1" opacity="1"/><line transform="translate(365,0)" x2="0" y2="5" stroke="#888" stroke-width="1" opacity="1"/><line transform="translate(375,0)" x2="0" y2="5" stroke="#888" stroke-width="1" opacity="1"/><line transform="translate(385,0)" x2="0" y2="5" stroke="#888" stroke-width="1" opacity="1"/><line transform="translate(395,0)" x2="0" y2="5" stroke="#888" stroke-width="1" opacity="1"/></g><g class="mark-text role-axis-label" pointer-events="none"><text text-anchor="end" transform="translate(5,7) rotate(270) translate(0,3)" font-family="sans-serif" font-size="10px" fill="#000" opacity="1">1</text><text text-anchor="end" transform="translate(15,7) rotate(270) translate(0,3)" font-family="sans-serif" font-size="10px" fill="#000" opacity="1">3</text><text text-anchor="end" transform="translate(25,7) rotate(270) translate(0,3)" font-family="sans-serif" font-size="10px" fill="#000" opacity="1">5</text><text text-anchor="end" transform="translate(35,7) rotate(270) translate(0,3)" font-family="sans-serif" font-size="10px" fill="#000" opacity="1">7</text><text text-anchor="end" transform="translate(45,7) rotate(270) translate(0,3)" font-family="sans-serif" font-size="10px" fill="#000" opacity="1">9</text><text text-anchor="end" transform="translate(55,7) rotate(270) translate(0,3)" font-family="sans-serif" font-size="10px" fill="#000" opacity="1">12</text><text text-anchor="end" transform="translate(65,7) rotate(270) translate(0,3)" font-family="sans-serif" font-size="10px" fill="#000" opacity="1">15</text><text text-anchor="end" transform="translate(75,7) rotate(270) translate(0,3)" font-family="sans-serif" font-size="10px" fill="#000" opacity="1">18</text><text text-anchor="end" transform="translate(85,7) rotate(270) translate(0,3)" font-family="sans-serif" font-size="10px" fill="#000" opacity="1">22</text><text text-anchor="end" transform="translate(95,7) rotate(270) translate(0,3)" font-family="sans-serif" font-size="10px" fill="#000" opacity="1">26</text><text text-anchor="end" transform="translate(105,7) rotate(270) translate(0,3)" font-family="sans-serif" font-size="10px" fill="#000" opacity="1">31</text><text text-anchor="end" transform="translate(115,7) rotate(270) translate(0,3)" font-family="sans-serif" font-size="10px" fill="#000" opacity="1">36</text><text text-anchor="end" transform="translate(125,7) rotate(270) translate(0,3)" font-family="sans-serif" font-size="10px" fill="#000" opacity="1">42</text><text text-anchor="end" transform="translate(135,7) rotate(270) translate(0,3)" font-family="sans-serif" font-size="10px" fill="#000" opacity="1">49</text><text text-anchor="end" transform="translate(145,7) rotate(270) translate(0,3)" font-family="sans-serif" font-size="10px" fill="#000" opacity="1">58</text><text text-anchor="end" transform="translate(155,7) rotate(270) translate(0,3)" font-family="sans-serif" font-size="10px" fill="#000" opacity="1">68</text><text text-anchor="end" transform="translate(165,7) rotate(270) translate(0,3)" font-family="sans-serif" font-size="10px" fill="#000" opacity="1">82</text><text text-anchor="end" transform="translate(175,7) rotate(270) translate(0,3)" font-family="sans-serif" font-size="10px" fill="#000" opacity="1">98</text><text text-anchor="end" transform="translate(185,7) rotate(270) translate(0,3)" font-family="sans-serif" font-size="10px" fill="#000" opacity="1">116</text><text text-anchor="end" transform="translate(195,7) rotate(270) translate(0,3)" font-family="sans-serif" font-size="10px" fill="#000" opacity="1">117</text><text text-anchor="end" transform="translate(205,7) rotate(270) translate(0,3)" font-family="sans-serif" font-size="10px" fill="#000" opacity="1">139</text><text text-anchor="end" transform="translate(215,7) rotate(270) translate(0,3)" font-family="sans-serif" font-size="10px" fill="#000" opacity="1">140</text><text text-anchor="end" transform="translate(225,7) rotate(270) translate(0,3)" font-family="sans-serif" font-size="10px" fill="#000" opacity="1">163</text><text text-anchor="end" transform="translate(235,7) rotate(270) translate(0,3)" font-family="sans-serif" font-size="10px" fill="#000" opacity="1">164</text><text text-anchor="end" transform="translate(245,7) rotate(270) translate(0,3)" font-family="sans-serif" font-size="10px" fill="#000" opacity="1">193</text><text text-anchor="end" transform="translate(255,7) rotate(270) translate(0,3)" font-family="sans-serif" font-size="10px" fill="#000" opacity="1">194</text><text text-anchor="end" transform="translate(265,7) rotate(270) translate(0,3)" font-family="sans-serif" font-size="10px" fill="#000" opacity="1">224</text><text text-anchor="end" transform="translate(275,7) rotate(270) translate(0,3)" font-family="sans-serif" font-size="10px" fill="#000" opacity="1">225</text><text text-anchor="end" transform="translate(285,7) rotate(270) translate(0,3)" font-family="sans-serif" font-size="10px" fill="#000" opacity="1">226</text><text text-anchor="end" transform="translate(295,7) rotate(270) translate(0,3)" font-family="sans-serif" font-size="10px" fill="#000" opacity="1">264</text><text text-anchor="end" transform="translate(305,7) rotate(270) translate(0,3)" font-family="sans-serif" font-size="10px" fill="#000" opacity="1">265</text><text text-anchor="end" transform="translate(315,7) rotate(270) translate(0,3)" font-family="sans-serif" font-size="10px" fill="#000" opacity="1">266</text><text text-anchor="end" transform="translate(325,7) rotate(270) translate(0,3)" font-family="sans-serif" font-size="10px" fill="#000" opacity="1">310</text><text text-anchor="end" transform="translate(335,7) rotate(270) translate(0,3)" font-family="sans-serif" font-size="10px" fill="#000" opacity="1">311</text><text text-anchor="end" transform="translate(345,7) rotate(270) translate(0,3)" font-family="sans-serif" font-size="10px" fill="#000" opacity="1">312</text><text text-anchor="end" transform="translate(355,7) rotate(270) translate(0,3)" font-family="sans-serif" font-size="10px" fill="#000" opacity="1">371</text><text text-anchor="end" transform="translate(365,7) rotate(270) translate(0,3)" font-family="sans-serif" font-size="10px" fill="#000" opacity="1">372</text><text text-anchor="end" transform="translate(375,7) rotate(270) translate(0,3)" font-family="sans-serif" font-size="10px" fill="#000" opacity="1">373</text><text text-anchor="end" transform="translate(385,7) rotate(270) translate(0,3)" font-family="sans-serif" font-size="10px" fill="#000" opacity="1">405</text><text text-anchor="end" transform="translate(395,7) rotate(270) translate(0,3)" font-family="sans-serif" font-size="10px" fill="#000" opacity="1">465</text></g><g class="mark-rule role-axis-domain" pointer-events="none"><line transform="translate(0,0)" x2="400" y2="0" stroke="#888" stroke-width="1" opacity="1"/></g><g class="mark-text role-axis-title" pointer-events="none"><text text-anchor="middle" transform="translate(200,39.10000038146973)" font-family="sans-serif" font-size="11px" font-weight="bold" fill="#000" opacity="1">timestamp</text></g></g><path class="foreground" aria-hidden="true" d="" pointer-events="none" display="none"/></g></g><g class="mark-group role-axis" role="graphics-symbol" aria-roledescription="axis" aria-label="Y-axis titled 'generated candidates' for a linear scale with values from 0 to 3,500"><g transform="translate(0.5,0.5)"><path class="background" aria-hidden="true" d="M0,0h0v0h0Z" pointer-events="none"/><g><g class="mark-rule role-axis-tick" pointer-events="none"><line transform="translate(0,300)" x2="-5" y2="0" stroke="#888" stroke-width="1" opacity="1"/><line transform="translate(0,257)" x2="-5" y2="0" stroke="#888" stroke-width="1" opacity="1"/><line transform="translate(0,214)" x2="-5" y2="0" stroke="#888" stroke-width="1" opacity="1"/><line transform="translate(0,171)" x2="-5" y2="0" stroke="#888" stroke-width="1" opacity="1"/><line transform="translate(0,129)" x2="-5" y2="0" stroke="#888" stroke-width="1" opacity="1"/><line transform="translate(0,86)" x2="-5" y2="0" stroke="#888" stroke-width="1" opacity="1"/><line transform="translate(0,43)" x2="-5" y2="0" stroke="#888" stroke-width="1" opacity="1"/><line transform="translate(0,0)" x2="-5" y2="0" stroke="#888" stroke-width="1" opacity="1"/></g><g class="mark-text role-axis-label" pointer-events="none"><text text-anchor="end" transform="translate(-7,303)" font-family="sans-serif" font-size="10px" fill="#000" opacity="1">0</text><text text-anchor="end" transform="translate(-7,260.14285714285717)" font-family="sans-serif" font-size="10px" fill="#000" opacity="1">500</text><text text-anchor="end" transform="translate(-7,217.28571428571428)" font-family="sans-serif" font-size="10px" fill="#000" opacity="1">1,000</text><text text-anchor="end" transform="translate(-7,174.42857142857142)" font-family="sans-serif" font-size="10px" fill="#000" opacity="1">1,500</text><text text-anchor="end" transform="translate(-7,131.57142857142858)" font-family="sans-serif" font-size="10px" fill="#000" opacity="1">2,000</text><text text-anchor="end" transform="translate(-7,88.71428571428571)" font-family="sans-serif" font-size="10px" fill="#000" opacity="1">2,500</text><text text-anchor="end" transform="translate(-7,45.85714285714287)" font-family="sans-serif" font-size="10px" fill="#000" opacity="1">3,000</text><text text-anchor="end" transform="translate(-7,3)" font-family="sans-serif" font-size="10px" fill="#000" opacity="1">3,500</text></g><g class="mark-rule role-axis-domain" pointer-events="none"><line transform="translate(0,300)" x2="0" y2="-300" stroke="#888" stroke-width="1" opacity="1"/></g><g class="mark-text role-axis-title" pointer-events="none"><text text-anchor="middle" transform="translate(-39.64999961853027,150) rotate(-90) translate(0,-2)" font-family="sans-serif" font-size="11px" font-weight="bold" fill="#000" opacity="1">generated candidates</text></g></g><path class="foreground" aria-hidden="true" d="" pointer-events="none" display="none"/></g></g><g class="mark-group role-scope pathgroup" role="graphics-object" aria-roledescription="group mark container"><g transform="translate(0,0)"><path class="background" aria-hidden="true" d="M0,0h400v300h-400Z"/><g><g class="mark-area role-mark marks" role="graphics-object" aria-roledescription="area mark container"><path aria-label="reason: extrema; timestamp: 1; generated candidates: 917" role="graphics-symbol" aria-roledescription="area mark" d="M5,220.45714285714286L15,236.2285714285714L25,235.9714285714286L35,231.68571428571428L45,231.34285714285713L55,228.77142857142857L65,228.08571428571426L75,228.08571428571426L85,227.9142857142857L95,224.48571428571427L105,223.88571428571427L115,225.17142857142858L125,225.25714285714287L135,225.68571428571425L145,225L155,223.88571428571427L165,226.28571428571428L175,225.51428571428573L185,233.82857142857142L195,290.65714285714284L205,231.34285714285713L215,290.9142857142857L225,235.54285714285714L235,290.57142857142856L245,219.68571428571425L255,289.7142857142857L265,226.11428571428573L275,287.2285714285714L285,296.31428571428575L295,220.45714285714286L305,290.48571428571427L315,296.4857142857143L325,219.94285714285712L335,292.54285714285714L345,294.77142857142854L355,218.82857142857142L365,296.4L375,296.4L385,299.8285714285714L395,223.28571428571428L395,296.9142857142857L385,299.8285714285714L375,296.4L365,296.4L355,294.6857142857143L345,294.77142857142854L335,292.54285714285714L325,296.4857142857143L315,296.4857142857143L305,290.48571428571427L295,295.37142857142857L285,296.31428571428575L275,287.2285714285714L265,297.0857142857143L255,289.7142857142857L245,289.45714285714286L235,290.57142857142856L225,292.0285714285714L215,290.9142857142857L205,291.51428571428573L195,290.65714285714284L185,291.34285714285716L175,282.0857142857143L165,282.0857142857143L155,282L145,282.0857142857143L135,282.6857142857143L125,282.7714285714286L115,282.9428571428572L105,282.85714285714283L95,282.85714285714283L85,282.9428571428572L75,283.2L65,283.1142857142857L55,284.5714285714286L45,288.51428571428573L35,290.57142857142856L25,293.4L15,298.0285714285714L5,299.0571428571429Z" fill="#72b7b2" opacity="0.7"/></g></g><path class="foreground" aria-hidden="true" d="" display="none"/></g><g transform="translate(0,0)"><path class="background" aria-hidden="true" d="M0,0h400v300h-400Z"/><g><g class="mark-area role-mark marks" role="graphics-object" aria-roledescription="area mark container"><path aria-label="reason: bloomfilter; timestamp: 1; generated candidates: 214" role="graphics-symbol" aria-roledescription="area mark" d="M5,36L15,71.82857142857144L25,79.28571428571428L35,79.02857142857144L45,81.17142857142858L55,82.97142857142858L65,85.02857142857144L75,87.25714285714284L85,87.42857142857144L95,87.25714285714284L105,87.42857142857144L115,87.25714285714284L125,87.42857142857144L135,91.71428571428571L145,89.48571428571428L155,87.42857142857144L165,89.48571428571428L175,87.25714285714284L185,96.77142857142859L195,290.65714285714284L205,93.68571428571428L215,290.9142857142857L225,100.97142857142856L235,290.57142857142856L245,92.74285714285715L255,289.7142857142857L265,98.74285714285716L275,287.2285714285714L285,296.31428571428575L295,101.39999999999999L305,290.48571428571427L315,296.4857142857143L325,102.08571428571429L335,292.54285714285714L345,294.77142857142854L355,104.39999999999999L365,296.4L375,296.4L385,299.8285714285714L395,111.0857142857143L395,111.0857142857143L385,299.8285714285714L375,296.4L365,296.4L355,104.39999999999999L345,294.77142857142854L335,292.54285714285714L325,102.08571428571429L315,296.4857142857143L305,290.48571428571427L295,101.39999999999999L285,296.31428571428575L275,287.2285714285714L265,98.74285714285716L255,289.7142857142857L245,92.74285714285715L235,290.57142857142856L225,100.97142857142856L215,290.9142857142857L205,93.94285714285715L195,290.65714285714284L185,96.77142857142859L175,87.25714285714284L165,89.48571428571428L155,87.42857142857144L145,89.48571428571428L135,91.71428571428571L125,87.42857142857144L115,87.25714285714284L105,87.42857142857144L95,87.25714285714284L85,87.42857142857144L75,87.42857142857144L65,85.2L55,84.34285714285714L45,87.17142857142858L35,87.25714285714284L25,90.60000000000001L15,86.82857142857145L5,54.34285714285715Z" fill="#4c78a8" opacity="0.7"/></g></g><path class="foreground" aria-hidden="true" d="" display="none"/></g><g transform="translate(0,0)"><path class="background" aria-hidden="true" d="M0,0h400v300h-400Z"/><g><g class="mark-area role-mark marks" role="graphics-object" aria-roledescription="area mark container"><path aria-label="reason: cardinality; timestamp: 1; generated candidates: 1509" role="graphics-symbol" aria-roledescription="area mark" d="M5,54.34285714285715L15,86.82857142857145L25,90.60000000000001L35,87.25714285714284L45,87.17142857142858L55,84.34285714285714L65,85.2L75,87.42857142857144L85,87.42857142857144L95,87.25714285714284L105,87.42857142857144L115,87.25714285714284L125,87.42857142857144L135,91.71428571428571L145,89.48571428571428L155,87.42857142857144L165,89.48571428571428L175,87.25714285714284L185,96.77142857142859L195,290.65714285714284L205,93.94285714285715L215,290.9142857142857L225,100.97142857142856L235,290.57142857142856L245,92.74285714285715L255,289.7142857142857L265,98.74285714285716L275,287.2285714285714L285,296.31428571428575L295,101.39999999999999L305,290.48571428571427L315,296.4857142857143L325,102.08571428571429L335,292.54285714285714L345,294.77142857142854L355,104.39999999999999L365,296.4L375,296.4L385,299.8285714285714L395,111.0857142857143L395,215.82857142857142L385,299.8285714285714L375,296.4L365,296.4L355,211.11428571428573L345,294.77142857142854L335,292.54285714285714L325,212.22857142857143L315,296.4857142857143L305,290.48571428571427L295,213.25714285714287L285,296.31428571428575L275,287.2285714285714L265,212.9142857142857L255,289.7142857142857L245,206.82857142857145L235,290.57142857142856L225,207.68571428571428L215,290.9142857142857L205,203.9142857142857L195,290.65714285714284L185,203.14285714285714L175,195.42857142857144L165,196.20000000000002L155,193.7142857142857L145,195.6857142857143L135,196.45714285714286L125,195.94285714285715L115,195.85714285714283L105,194.14285714285714L95,195.42857142857144L85,195.85714285714283L75,196.02857142857144L65,195.85714285714283L55,196.71428571428572L45,199.54285714285714L35,201.0857142857143L25,202.9714285714286L15,202.54285714285714L5,183.68571428571428Z" fill="#f58518" opacity="0.7"/></g></g><path class="foreground" aria-hidden="true" d="" display="none"/></g><g transform="translate(0,0)"><path class="background" aria-hidden="true" d="M0,0h400v300h-400Z"/><g><g class="mark-area role-mark marks" role="graphics-object" aria-roledescription="area mark container"><path aria-label="reason: datatype; timestamp: 1; generated candidates: 429" role="graphics-symbol" aria-roledescription="area mark" d="M5,183.68571428571428L15,202.54285714285714L25,202.9714285714286L35,201.0857142857143L45,199.54285714285714L55,196.71428571428572L65,195.85714285714283L75,196.02857142857144L85,195.85714285714283L95,195.42857142857144L105,194.14285714285714L115,195.85714285714283L125,195.94285714285715L135,196.45714285714286L145,195.6857142857143L155,193.7142857142857L165,196.20000000000002L175,195.42857142857144L185,203.14285714285714L195,290.65714285714284L205,203.9142857142857L215,290.9142857142857L225,207.68571428571428L235,290.57142857142856L245,206.82857142857145L255,289.7142857142857L265,212.9142857142857L275,287.2285714285714L285,296.31428571428575L295,213.25714285714287L305,290.48571428571427L315,296.4857142857143L325,212.22857142857143L335,292.54285714285714L345,294.77142857142854L355,211.11428571428573L365,296.4L375,296.4L385,299.8285714285714L395,215.82857142857142L395,223.28571428571428L385,299.8285714285714L375,296.4L365,296.4L355,218.82857142857142L345,294.77142857142854L335,292.54285714285714L325,219.94285714285712L315,296.4857142857143L305,290.48571428571427L295,220.45714285714286L285,296.31428571428575L275,287.2285714285714L265,226.11428571428573L255,289.7142857142857L245,219.68571428571425L235,290.57142857142856L225,235.54285714285714L215,290.9142857142857L205,231.34285714285713L195,290.65714285714284L185,233.82857142857142L175,225.51428571428573L165,226.28571428571428L155,223.88571428571427L145,225L135,225.68571428571425L125,225.25714285714287L115,225.17142857142858L105,223.88571428571427L95,224.48571428571427L85,227.9142857142857L75,228.08571428571426L65,228.08571428571426L55,228.77142857142857L45,231.34285714285713L35,231.68571428571428L25,235.9714285714286L15,236.2285714285714L5,220.45714285714286Z" fill="#e45756" opacity="0.7"/></g></g><path class="foreground" aria-hidden="true" d="" display="none"/></g><g transform="translate(0,0)"><path class="background" aria-hidden="true" d="M0,0h400v300h-400Z"/><g><g class="mark-area role-mark marks" role="graphics-object" aria-roledescription="area mark container"><path aria-label="reason: succeeded_check; timestamp: 1; generated candidates: 11" role="graphics-symbol" aria-roledescription="area mark" d="M5,299.0571428571429L15,299.9142857142857L25,299.8285714285714L35,299.74285714285713L45,299.74285714285713L55,299.9142857142857L65,299.9142857142857L75,299.9142857142857L85,299.9142857142857L95,299.9142857142857L105,299.9142857142857L115,299.9142857142857L125,299.9142857142857L135,299.9142857142857L145,299.9142857142857L155,299.9142857142857L165,299.9142857142857L175,299.8285714285714L185,299.8285714285714L195,300L205,299.8285714285714L215,300L225,299.8285714285714L235,300L245,299.9142857142857L255,300L265,300L275,299.9142857142857L285,300L295,299.9142857142857L305,300L315,300L325,300L335,299.9142857142857L345,300L355,299.9142857142857L365,300L375,300L385,300L395,299.9142857142857L395,300L385,300L375,300L365,300L355,300L345,300L335,300L325,300L315,300L305,300L295,300L285,300L275,300L265,300L255,300L245,300L235,300L225,300L215,300L205,300L195,300L185,300L175,300L165,300L155,300L145,300L135,300L125,300L115,300L105,300L95,300L85,300L75,300L65,300L55,300L45,300L35,300L25,300L15,300L5,300Z" fill="#eeca3b" opacity="0.7"/></g></g><path class="foreground" aria-hidden="true" d="" display="none"/></g><g transform="translate(0,0)"><path class="background" aria-hidden="true" d="M0,0h400v300h-400Z"/><g><g class="mark-area role-mark marks" role="graphics-object" aria-roledescription="area mark container"><path aria-label="reason: failed_check; timestamp: 1; generated candidates: 0" role="graphics-symbol" aria-roledescription="area mark" d="M5,299.0571428571429L15,298.0285714285714L25,293.4L35,290.57142857142856L45,288.51428571428573L55,284.5714285714286L65,283.1142857142857L75,283.2L85,282.9428571428572L95,282.85714285714283L105,282.85714285714283L115,282.9428571428572L125,282.7714285714286L135,282.6857142857143L145,282.0857142857143L155,282L165,282.0857142857143L175,282.0857142857143L185,291.34285714285716L195,290.65714285714284L205,291.51428571428573L215,290.9142857142857L225,292.0285714285714L235,290.57142857142856L245,289.45714285714286L255,289.7142857142857L265,297.0857142857143L275,287.2285714285714L285,296.31428571428575L295,295.37142857142857L305,290.48571428571427L315,296.4857142857143L325,296.4857142857143L335,292.54285714285714L345,294.77142857142854L355,294.6857142857143L365,296.4L375,296.4L385,299.8285714285714L395,296.9142857142857L395,299.9142857142857L385,300L375,300L365,300L355,299.9142857142857L345,300L335,299.9142857142857L325,300L315,300L305,300L295,299.9142857142857L285,300L275,299.9142857142857L265,300L255,300L245,299.9142857142857L235,300L225,299.8285714285714L215,300L205,299.8285714285714L195,300L185,299.8285714285714L175,299.8285714285714L165,299.9142857142857L155,299.9142857142857L145,299.9142857142857L135,299.9142857142857L125,299.9142857142857L115,299.9142857142857L105,299.9142857142857L95,299.9142857142857L85,299.9142857142857L75,299.9142857142857L65,299.9142857142857L55,299.9142857142857L45,299.74285714285713L35,299.74285714285713L25,299.8285714285714L15,299.9142857142857L5,299.0571428571429Z" fill="#54a24b" opacity="0.7"/></g></g><path class="foreground" aria-hidden="true" d="" display="none"/></g></g><g class="mark-group role-legend" role="graphics-symbol" aria-roledescription="legend" aria-label="Symbol legend titled 'reason' for fill color with 6 values: bloomfilter, cardinality, datatype, extrema, failed_check, succeeded_check"><g transform="translate(418,0)"><path class="background" aria-hidden="true" d="M0,0h104v92h-104Z" pointer-events="none"/><g><g class="mark-group role-legend-entry"><g transform="translate(0,16)"><path class="background" aria-hidden="true" d="M0,0h0v0h0Z" pointer-events="none"/><g><g class="mark-group role-scope" role="graphics-object" aria-roledescription="group mark container"><g transform="translate(0,0)"><path class="background" aria-hidden="true" d="M0,0h103.96666717529297v11h-103.96666717529297Z" pointer-events="none" opacity="1"/><g><g class="mark-symbol role-legend-symbol" pointer-events="none"><path transform="translate(6,6)" d="M5,0A5,5,0,1,1,-5,0A5,5,0,1,1,5,0" fill="#4c78a8" stroke-width="1.5" opacity="0.7"/></g><g class="mark-text role-legend-label" pointer-events="none"><text text-anchor="start" transform="translate(16,9)" font-family="sans-serif" font-size="10px" fill="#000" opacity="1">bloomfilter</text></g></g><path class="foreground" aria-hidden="true" d="" pointer-events="none" display="none"/></g><g transform="translate(0,13)"><path class="background" aria-hidden="true" d="M0,0h103.96666717529297v11h-103.96666717529297Z" pointer-events="none" opacity="1"/><g><g class="mark-symbol role-legend-symbol" pointer-events="none"><path transform="translate(6,6)" d="M5,0A5,5,0,1,1,-5,0A5,5,0,1,1,5,0" fill="#f58518" stroke-width="1.5" opacity="0.7"/></g><g class="mark-text role-legend-label" pointer-events="none"><text text-anchor="start" transform="translate(16,9)" font-family="sans-serif" font-size="10px" fill="#000" opacity="1">cardinality</text></g></g><path class="foreground" aria-hidden="true" d="" pointer-events="none" display="none"/></g><g transform="translate(0,26)"><path class="background" aria-hidden="true" d="M0,0h103.96666717529297v11h-103.96666717529297Z" pointer-events="none" opacity="1"/><g><g class="mark-symbol role-legend-symbol" pointer-events="none"><path transform="translate(6,6)" d="M5,0A5,5,0,1,1,-5,0A5,5,0,1,1,5,0" fill="#e45756" stroke-width="1.5" opacity="0.7"/></g><g class="mark-text role-legend-label" pointer-events="none"><text text-anchor="start" transform="translate(16,9)" font-family="sans-serif" font-size="10px" fill="#000" opacity="1">datatype</text></g></g><path class="foreground" aria-hidden="true" d="" pointer-events="none" display="none"/></g><g transform="translate(0,39)"><path class="background" aria-hidden="true" d="M0,0h103.96666717529297v11h-103.96666717529297Z" pointer-events="none" opacity="1"/><g><g class="mark-symbol role-legend-symbol" pointer-events="none"><path transform="translate(6,6)" d="M5,0A5,5,0,1,1,-5,0A5,5,0,1,1,5,0" fill="#72b7b2" stroke-width="1.5" opacity="0.7"/></g><g class="mark-text role-legend-label" pointer-events="none"><text text-anchor="start" transform="translate(16,9)" font-family="sans-serif" font-size="10px" fill="#000" opacity="1">extrema</text></g></g><path class="foreground" aria-hidden="true" d="" pointer-events="none" display="none"/></g><g transform="translate(0,52)"><path class="background" aria-hidden="true" d="M0,0h103.96666717529297v11h-103.96666717529297Z" pointer-events="none" opacity="1"/><g><g class="mark-symbol role-legend-symbol" pointer-events="none"><path transform="translate(6,6)" d="M5,0A5,5,0,1,1,-5,0A5,5,0,1,1,5,0" fill="#54a24b" stroke-width="1.5" opacity="0.7"/></g><g class="mark-text role-legend-label" pointer-events="none"><text text-anchor="start" transform="translate(16,9)" font-family="sans-serif" font-size="10px" fill="#000" opacity="1">failed_check</text></g></g><path class="foreground" aria-hidden="true" d="" pointer-events="none" display="none"/></g><g transform="translate(0,65)"><path class="background" aria-hidden="true" d="M0,0h103.96666717529297v11h-103.96666717529297Z" pointer-events="none" opacity="1"/><g><g class="mark-symbol role-legend-symbol" pointer-events="none"><path transform="translate(6,6)" d="M5,0A5,5,0,1,1,-5,0A5,5,0,1,1,5,0" fill="#eeca3b" stroke-width="1.5" opacity="0.7"/></g><g class="mark-text role-legend-label" pointer-events="none"><text text-anchor="start" transform="translate(16,9)" font-family="sans-serif" font-size="10px" fill="#000" opacity="1">succeeded_check</text></g></g><path class="foreground" aria-hidden="true" d="" pointer-events="none" display="none"/></g></g></g><path class="foreground" aria-hidden="true" d="" pointer-events="none" display="none"/></g></g><g class="mark-text role-legend-title" pointer-events="none"><text text-anchor="start" transform="translate(0,9)" font-family="sans-serif" font-size="11px" font-weight="bold" fill="#000" opacity="1">reason</text></g></g><path class="foreground" aria-hidden="true" d="" pointer-events="none" display="none"/></g></g></g><path class="foreground" aria-hidden="true" d="" display="none"/></g></g></g></svg>