<svg xmlns="http://www.w3.org/2000/svg" xmlns:xlink="http://www.w3.org/1999/xlink" version="1.1" class="marks" width="583" height="357" viewBox="0 0 583 357"><rect width="583" height="357" fill="white"/><g fill="none" stroke-miterlimit="10" transform="translate(56,10)"><g class="mark-group role-frame root" role="graphics-object" aria-roledescription="group mark container"><g transform="translate(0,0)"><path class="background" aria-hidden="true" d="M0.5,0.5h400v300h-400Z" stroke="#ddd"/><g><g class="mark-group role-axis" aria-hidden="true"><g transform="translate(0.5,0.5)"><path class="background" aria-hidden="true" d="M0,0h0v0h0Z" pointer-events="none"/><g><g class="mark-rule role-axis-grid" pointer-events="none"><line transform="translate(0,300)" x2="400" y2="0" stroke="#ddd" stroke-width="1" opacity="1"/><line transform="translate(0,257)" x2="400" y2="0" stroke="#ddd" stroke-width="1" opacity="1"/><line transform="translate(0,214)" x2="400" y2="0" stroke="#ddd" stroke-width="1" opacity="1"/><line transform="translate(0,171)" x2="400" y2="0" stroke="#ddd" stroke-width="1" opacity="1"/><line transform="translate(0,129)" x2="400" y2="0" stroke="#ddd" stroke-width="1" opacity="1"/><line transform="translate(0,86)" x2="400" y2="0" stroke="#ddd" stroke-width="1" opacity="1"/><line transform="translate(0,43)" x2="400" y2="0" stroke="#ddd" stroke-width="1" opacity="1"/><line transform="translate(0,0)" x2="400" y2="0" stroke="#ddd" stroke-width="1" opacity="1"/></g></g><path class="foreground" aria-hidden="true" d="" pointer-events="none" display="none"/></g></g><g class="mark-group role-axis" role="graphics-symbol" aria-roledescription="axis" aria-label="X-axis titled 'timestamp' for a discrete scale with 21 values: 1, 3, 4, 6, 9, ending with 110"><g transform="translate(0.5,300.5)"><path class="background" aria-hidden="true" d="M0,0h0v0h0Z" pointer-events="none"/><g><g class="mark-rule role-axis-tick" pointer-events="none"><line transform="translate(10,0)" x2="0" y2="5" stroke="#888" stroke-width="1" opacity="1"/><line transform="translate(29,0)" x2="0" y2="5" stroke="#888" stroke-width="1" opacity="1"/><line transform="translate(48,0)" x2="0" y2="5" stroke="#888" stroke-width="1" opacity="1"/><line transform="translate(67,0)" x2="0" y2="5" stroke="#888" stroke-width="1" opacity="1"/><line transform="translate(86,0)" x2="0" y2="5" stroke="#888" stroke-width="1" opacity="1"/><line transform="translate(105,0)" x2="0" y2="5" stroke="#888" stroke-width="1" opacity="1"/><line transform="translate(124,0)" x2="0" y2="5" stroke="#888" stroke-width="1" opacity="1"/><line transform="translate(143,0)" x2="0" y2="5" stroke="#888" stroke-width="1" opacity="1"/><line transform="translate(162,0)" x2="0" y2="5" stroke="#888" stroke-width="1" opacity="1"/><line transform="translate(181,0)" x2="0" y2="5" stroke="#888" stroke-width="1" opacity="1"/><line transform="translate(200,0)" x2="0" y2="5" stroke="#888" stroke-width="1" opacity="1"/><line transform="translate(219,0)" x2="0" y2="5" stroke="#888" stroke-width="1" opacity="1"/><line transform="translate(238,0)" x2="0" y2="5" stroke="#888" stroke-width="1" opacity="1"/><line transform="translate(257,0)" x2="0" y2="5" stroke="#888" stroke-width="1" opacity="1"/><line transform="translate(276,0)" x2="0" y2="5" stroke="#888" stroke-width="1" opacity="1"/><line transform="translate(295,0)" x2="0" y2="5" stroke="#888" stroke-width="1" opacity="1"/><line transform="translate(314,0)" x2="0" y2="5" stroke="#888" stroke-width="1" opacity="1"/><line transform="translate(333,0)" x2="0" y2="5" stroke="#888" stroke-width="1" opacity="1"/><line transform="translate(352,0)" x2="0" y2="5" stroke="#888" stroke-width="1" opacity="1"/><line transform="translate(371,0)" x2="0" y2="5" stroke="#888" stroke-width="1" opacity="1"/><line transform="translate(390,0)" x2="0" y2="5" stroke="#888" stroke-width="1" opacity="1"/></g><g class="mark-text role-axis-label" pointer-events="none"><text text-anchor="end" transform="translate(9.523809523809518,7) rotate(270) translate(0,3)" font-family="sans-serif" font-size="10px" fill="#000" opacity="1">1</text><text text-anchor="end" transform="translate(28.571428571428566,7) rotate(270) translate(0,3)" font-family="sans-serif" font-size="10px" fill="#000" opacity="1">3</text><text text-anchor="end" transform="translate(47.61904761904761,7) rotate(270) translate(0,3)" font-family="sans-serif" font-size="10px" fill="#000" opacity="1">4</text><text text-anchor="end" transform="translate(66.66666666666666,7) rotate(270) translate(0,3)" font-family="sans-serif" font-size="10px" fill="#000" opacity="1">6</text><text text-anchor="end" transform="translate(85.71428571428571,7) rotate(270) translate(0,3)" font-family="sans-serif" font-size="10px" fill="#000" opacity="1">9</text><text text-anchor="end" transform="translate(104.76190476190476,7) rotate(270) translate(0,3)" font-family="sans-serif" font-size="10px" fill="#000" opacity="1">12</text><text text-anchor="end" transform="translate(123.8095238095238,7) rotate(270) translate(0,3)" font-family="sans-serif" font-size="10px" fill="#000" opacity="1">15</text><text text-anchor="end" transform="translate(142.85714285714286,7) rotate(270) translate(0,3)" font-family="sans-serif" font-size="10px" fill="#000" opacity="1">19</text><text text-anchor="end" transform="translate(161.9047619047619,7) rotate(270) translate(0,3)" font-family="sans-serif" font-size="10px" fill="#000" opacity="1">22</text><text text-anchor="end" transform="translate(180.95238095238093,7) rotate(270) translate(0,3)" font-family="sans-serif" font-size="10px" fill="#000" opacity="1">26</text><text text-anchor="end" transform="translate(200,7) rotate(270) translate(0,3)" font-family="sans-serif" font-size="10px" fill="#000" opacity="1">31</text><text text-anchor="end" transform="translate(219.04761904761904,7) rotate(270) translate(0,3)" font-family="sans-serif" font-size="10px" fill="#000" opacity="1">36</text><text text-anchor="end" transform="translate(238.09523809523807,7) rotate(270) translate(0,3)" font-family="sans-serif" font-size="10px" fill="#000" opacity="1">42</text><text text-anchor="end" transform="translate(257.1428571428571,7) rotate(270) translate(0,3)" font-family="sans-serif" font-size="10px" fill="#000" opacity="1">49</text><text text-anchor="end" transform="translate(276.1904761904762,7) rotate(270) translate(0,3)" font-family="sans-serif" font-size="10px" fill="#000" opacity="1">56</text><text text-anchor="end" transform="translate(295.23809523809524,7) rotate(270) translate(0,3)" font-family="sans-serif" font-size="10px" fill="#000" opacity="1">64</text><text text-anchor="end" transform="translate(314.2857142857143,7) rotate(270) translate(0,3)" font-family="sans-serif" font-size="10px" fill="#000" opacity="1">74</text><text text-anchor="end" transform="translate(333.3333333333333,7) rotate(270) translate(0,3)" font-family="sans-serif" font-size="10px" fill="#000" opacity="1">85</text><text text-anchor="end" transform="translate(352.38095238095235,7) rotate(270) translate(0,3)" font-family="sans-serif" font-size="10px" fill="#000" opacity="1">96</text><text text-anchor="end" transform="translate(371.42857142857144,7) rotate(270) translate(0,3)" font-family="sans-serif" font-size="10px" fill="#000" opacity="1">109</text><text text-anchor="end" transform="translate(390.4761904761905,7) rotate(270) translate(0,3)" font-family="sans-serif" font-size="10px" fill="#000" opacity="1">110</text></g><g class="mark-rule role-axis-domain" pointer-events="none"><line transform="translate(0,0)" x2="400" y2="0" stroke="#888" stroke-width="1" opacity="1"/></g><g class="mark-text role-axis-title" pointer-events="none"><text text-anchor="middle" transform="translate(200,39.10000038146973)" font-family="sans-serif" font-size="11px" font-weight="bold" fill="#000" opacity="1">timestamp</text></g></g><path class="foreground" aria-hidden="true" d="" pointer-events="none" display="none"/></g></g><g class="mark-group role-axis" role="graphics-symbol" aria-roledescription="axis" aria-label="Y-axis titled 'generated candidates' for a linear scale with values from 0 to 3,500"><g transform="translate(0.5,0.5)"><path class="background" aria-hidden="true" d="M0,0h0v0h0Z" pointer-events="none"/><g><g class="mark-rule role-axis-tick" pointer-events="none"><line transform="translate(0,300)" x2="-5" y2="0" stroke="#888" stroke-width="1" opacity="1"/><line transform="translate(0,257)" x2="-5" y2="0" stroke="#888" stroke-width="1" opacity="1"/><line transform="translate(0,214)" x2="-5" y2="0" stroke="#888" stroke-width="1" opacity="1"/><line transform="translate(0,171)" x2="-5" y2="0" stroke="#888" stroke-width="1" opacity="1"/><line transform="translate(0,129)" x2="-5" y2="0" stroke="#888" stroke-width="1" opacity="1"/><line transform="translate(0,86)" x2="-5" y2="0" stroke="#888" stroke-width="1" opacity="1"/><line transform="translate(0,43)" x2="-5" y2="0" stroke="#888" stroke-width="1" opacity="1"/><line transform="translate(0,0)" x2="-5" y2="0" stroke="#888" stroke-width="1" opacity="1"/></g><g class="mark-text role-axis-label" pointer-events="none"><text text-anchor="end" transform="translate(-7,303)" font-family="sans-serif" font-size="10px" fill="#000" opacity="1">0</text><text text-anchor="end" transform="translate(-7,260.14285714285717)" font-family="sans-serif" font-size="10px" fill="#000" opacity="1">500</text><text text-anchor="end" transform="translate(-7,217.28571428571428)" font-family="sans-serif" font-size="10px" fill="#000" opacity="1">1,000</text><text text-anchor="end" transform="translate(-7,174.42857142857142)" font-family="sans-serif" font-size="10px" fill="#000" opacity="1">1,500</text><text text-anchor="end" transform="translate(-7,131.57142857142858)" font-family="sans-serif" font-size="10px" fill="#000" opacity="1">2,000</text><text text-anchor="end" transform="translate(-7,88.71428571428571)" font-family="sans-serif" font-size="10px" fill="#000" opacity="1">2,500</text><text text-anchor="end" transform="translate(-7,45.85714285714287)" font-family="sans-serif" font-size="10px" fill="#000" opacity="1">3,000</text><text text-anchor="end" transform="translate(-7,3)" font-family="sans-serif" font-size="10px" fill="#000" opacity="1">3,500</text></g><g class="mark-rule role-axis-domain" pointer-events="none"><line transform="translate(0,300)" x2="0" y2="-300" stroke="#888" stroke-width="1" opacity="1"/></g><g class="mark-text role-axis-title" pointer-events="none"><text text-anchor="middle" transform="translate(-39.64999961853027,150) rotate(-90) translate(0,-2)" font-family="sans-serif" font-size="11px" font-weight="bold" fill="#000" opacity="1">generated candidates</text></g></g><path class="foreground" aria-hidden="true" d="" pointer-events="none" display="none"/></g></g><g class="mark-group role-scope pathgroup" role="graphics-object" aria-roledescription="group mark container"><g transform="translate(0,0)"><path class="background" aria-hidden="true" d="M0,0h400v300h-400Z"/><g><g class="mark-area role-mark marks" role="graphics-object" aria-roledescription="area mark container"><path aria-label="reason: cardinality; timestamp: 1; generated candidates: 1505" role="graphics-symbol" aria-roledescription="area mark" d="M9.523809523809518,51.000000000000014L28.571428571428566,113.05714285714286L47.61904761904761,147.6857142857143L66.66666666666666,149.05714285714288L85.71428571428571,148.8857142857143L104.76190476190476,147.85714285714286L123.8095238095238,153.25714285714287L142.85714285714286,153.25714285714287L161.9047619047619,156.51428571428573L180.95238095238093,221.31428571428572L200,221.48571428571427L219.04761904761904,229.37142857142857L238.09523809523807,229.37142857142857L257.1428571428571,229.37142857142857L276.1904761904762,225.34285714285713L295.23809523809524,225.34285714285713L314.2857142857143,229.37142857142857L333.3333333333333,229.37142857142857L352.38095238095235,233.48571428571427L371.42857142857144,270.51428571428573L390.4761904761905,297.25714285714287L390.4761904761905,297.25714285714287L371.42857142857144,287.74285714285713L352.38095238095235,268.0285714285714L333.3333333333333,266.4857142857143L314.2857142857143,264.6857142857143L295.23809523809524,263.22857142857146L276.1904761904762,263.22857142857146L257.1428571428571,264.6857142857143L238.09523809523807,264.6857142857143L219.04761904761904,264.6857142857143L200,261.77142857142854L180.95238095238093,261.6857142857143L161.9047619047619,230.31428571428572L142.85714285714286,229.54285714285714L123.8095238095238,229.54285714285714L104.76190476190476,227.82857142857142L85.71428571428571,230.65714285714287L66.66666666666666,230.31428571428572L47.61904761904761,229.45714285714288L28.571428571428566,216.0857142857143L9.523809523809518,180Z" fill="#f58518" opacity="0.7"/></g></g><path class="foreground" aria-hidden="true" d="" display="none"/></g><g transform="translate(0,0)"><path class="background" aria-hidden="true" d="M0,0h400v300h-400Z"/><g><g class="mark-area role-mark marks" role="graphics-object" aria-roledescription="area mark container"><path aria-label="reason: extrema; timestamp: 1; generated candidates: 985" role="graphics-symbol" aria-roledescription="area mark" d="M9.523809523809518,213.51428571428573L28.571428571428566,243.77142857142857L47.61904761904761,251.57142857142856L66.66666666666666,252L85.71428571428571,252.0857142857143L104.76190476190476,249.68571428571428L123.8095238095238,250.62857142857143L142.85714285714286,250.62857142857143L161.9047619047619,250.79999999999998L180.95238095238093,273.9428571428571L200,274.02857142857147L219.04761904761904,274.02857142857147L238.09523809523807,274.02857142857147L257.1428571428571,273.9428571428571L276.1904761904762,273.51428571428573L295.23809523809524,273.42857142857144L314.2857142857143,273.34285714285716L333.3333333333333,276.34285714285716L352.38095238095235,276.42857142857144L371.42857142857144,292.2857142857143L390.4761904761905,297.25714285714287L390.4761904761905,297.25714285714287L371.42857142857144,299.0571428571429L352.38095238095235,293.2285714285714L333.3333333333333,293.31428571428575L314.2857142857143,292.37142857142857L295.23809523809524,292.37142857142857L276.1904761904762,292.45714285714286L257.1428571428571,292.45714285714286L238.09523809523807,292.54285714285714L219.04761904761904,292.54285714285714L200,292.54285714285714L180.95238095238093,292.54285714285714L161.9047619047619,287.0571428571429L142.85714285714286,287.48571428571427L123.8095238095238,287.65714285714284L104.76190476190476,288.42857142857144L85.71428571428571,289.8857142857143L66.66666666666666,292.37142857142857L47.61904761904761,294L28.571428571428566,298.0285714285714L9.523809523809518,297.9428571428571Z" fill="#72b7b2" opacity="0.7"/></g></g><path class="foreground" aria-hidden="true" d="" display="none"/></g><g transform="translate(0,0)"><path class="background" aria-hidden="true" d="M0,0h400v300h-400Z"/><g><g class="mark-area role-mark marks" role="graphics-object" aria-roledescription="area mark container"><path aria-label="reason: datatype; timestamp: 1; generated candidates: 391" role="graphics-symbol" aria-roledescription="area mark" d="M9.523809523809518,180L28.571428571428566,216.0857142857143L47.61904761904761,229.45714285714288L66.66666666666666,230.31428571428572L85.71428571428571,230.65714285714287L104.76190476190476,227.82857142857142L123.8095238095238,229.54285714285714L142.85714285714286,229.54285714285714L161.9047619047619,230.31428571428572L180.95238095238093,261.6857142857143L200,261.77142857142854L219.04761904761904,264.6857142857143L238.09523809523807,264.6857142857143L257.1428571428571,264.6857142857143L276.1904761904762,263.22857142857146L295.23809523809524,263.22857142857146L314.2857142857143,264.6857142857143L333.3333333333333,266.4857142857143L352.38095238095235,268.0285714285714L371.42857142857144,287.74285714285713L390.4761904761905,297.25714285714287L390.4761904761905,297.25714285714287L371.42857142857144,292.2857142857143L352.38095238095235,276.42857142857144L333.3333333333333,276.34285714285716L314.2857142857143,273.34285714285716L295.23809523809524,273.42857142857144L276.1904761904762,273.51428571428573L257.1428571428571,273.9428571428571L238.09523809523807,274.02857142857147L219.04761904761904,274.02857142857147L200,274.02857142857147L180.95238095238093,273.9428571428571L161.9047619047619,250.79999999999998L142.85714285714286,250.62857142857143L123.8095238095238,250.62857142857143L104.76190476190476,249.68571428571428L85.71428571428571,252.0857142857143L66.66666666666666,252L47.61904761904761,251.57142857142856L28.571428571428566,243.77142857142857L9.523809523809518,213.51428571428573Z" fill="#e45756" opacity="0.7"/></g></g><path class="foreground" aria-hidden="true" d="" display="none"/></g><g transform="translate(0,0)"><path class="background" aria-hidden="true" d="M0,0h400v300h-400Z"/><g><g class="mark-area role-mark marks" role="graphics-object" aria-roledescription="area mark container"><path aria-label="reason: bloomfilter; timestamp: 1; generated candidates: 175" role="graphics-symbol" aria-roledescription="area mark" d="M9.523809523809518,36L28.571428571428566,100.62857142857142L47.61904761904761,141L66.66666666666666,144L85.71428571428571,146.91428571428574L104.76190476190476,147.0857142857143L123.8095238095238,153.25714285714287L142.85714285714286,153.25714285714287L161.9047619047619,156.51428571428573L180.95238095238093,221.31428571428572L200,221.48571428571427L219.04761904761904,229.37142857142857L238.09523809523807,229.37142857142857L257.1428571428571,229.37142857142857L276.1904761904762,225.34285714285713L295.23809523809524,225.34285714285713L314.2857142857143,229.37142857142857L333.3333333333333,229.37142857142857L352.38095238095235,233.48571428571427L371.42857142857144,270.51428571428573L390.4761904761905,297.25714285714287L390.4761904761905,297.25714285714287L371.42857142857144,270.51428571428573L352.38095238095235,233.48571428571427L333.3333333333333,229.37142857142857L314.2857142857143,229.37142857142857L295.23809523809524,225.34285714285713L276.1904761904762,225.34285714285713L257.1428571428571,229.37142857142857L238.09523809523807,229.37142857142857L219.04761904761904,229.37142857142857L200,221.48571428571427L180.95238095238093,221.31428571428572L161.9047619047619,156.51428571428573L142.85714285714286,153.25714285714287L123.8095238095238,153.25714285714287L104.76190476190476,147.85714285714286L85.71428571428571,148.8857142857143L66.66666666666666,149.05714285714288L47.61904761904761,147.6857142857143L28.571428571428566,113.05714285714286L9.523809523809518,51.000000000000014Z" fill="#4c78a8" opacity="0.7"/></g></g><path class="foreground" aria-hidden="true" d="" display="none"/></g><g transform="translate(0,0)"><path class="background" aria-hidden="true" d="M0,0h400v300h-400Z"/><g><g class="mark-area role-mark marks" role="graphics-object" aria-roledescription="area mark container"><path aria-label="reason: succeeded_check; timestamp: 1; generated candidates: 24" role="graphics-symbol" aria-roledescription="area mark" d="M9.523809523809518,297.9428571428571L28.571428571428566,299.74285714285713L47.61904761904761,299.74285714285713L66.66666666666666,299.74285714285713L85.71428571428571,299.9142857142857L104.76190476190476,299.9142857142857L123.8095238095238,299.9142857142857L142.85714285714286,299.9142857142857L161.9047619047619,299.9142857142857L180.95238095238093,300L200,300L219.04761904761904,300L238.09523809523807,300L257.1428571428571,300L276.1904761904762,299.8285714285714L295.23809523809524,299.8285714285714L314.2857142857143,299.8285714285714L333.3333333333333,299.8285714285714L352.38095238095235,299.74285714285713L371.42857142857144,300L390.4761904761905,300L390.4761904761905,300L371.42857142857144,300L352.38095238095235,300L333.3333333333333,300L314.2857142857143,300L295.23809523809524,300L276.1904761904762,300L257.1428571428571,300L238.09523809523807,300L219.04761904761904,300L200,300L180.95238095238093,300L161.9047619047619,300L142.85714285714286,300L123.8095238095238,300L104.76190476190476,300L85.71428571428571,300L66.66666666666666,300L47.61904761904761,300L28.571428571428566,300L9.523809523809518,300Z" fill="#eeca3b" opacity="0.7"/></g></g><path class="foreground" aria-hidden="true" d="" display="none"/></g><g transform="translate(0,0)"><path class="background" aria-hidden="true" d="M0,0h400v300h-400Z"/><g><g class="mark-area role-mark marks" role="graphics-object" aria-roledescription="area mark container"><path aria-label="reason: failed_check; timestamp: 1; generated candidates: 0" role="graphics-symbol" aria-roledescription="area mark" d="M9.523809523809518,297.9428571428571L28.571428571428566,298.0285714285714L47.61904761904761,294L66.66666666666666,292.37142857142857L85.71428571428571,289.8857142857143L104.76190476190476,288.42857142857144L123.8095238095238,287.65714285714284L142.85714285714286,287.48571428571427L161.9047619047619,287.0571428571429L180.95238095238093,292.54285714285714L200,292.54285714285714L219.04761904761904,292.54285714285714L238.09523809523807,292.54285714285714L257.1428571428571,292.45714285714286L276.1904761904762,292.45714285714286L295.23809523809524,292.37142857142857L314.2857142857143,292.37142857142857L333.3333333333333,293.31428571428575L352.38095238095235,293.2285714285714L371.42857142857144,299.0571428571429L390.4761904761905,297.25714285714287L390.4761904761905,300L371.42857142857144,300L352.38095238095235,299.74285714285713L333.3333333333333,299.8285714285714L314.2857142857143,299.8285714285714L295.23809523809524,299.8285714285714L276.1904761904762,299.8285714285714L257.1428571428571,300L238.09523809523807,300L219.04761904761904,300L200,300L180.95238095238093,300L161.9047619047619,299.9142857142857L142.85714285714286,299.9142857142857L123.8095238095238,299.9142857142857L104.76190476190476,299.9142857142857L85.71428571428571,299.9142857142857L66.66666666666666,299.74285714285713L47.61904761904761,299.74285714285713L28.571428571428566,299.74285714285713L9.523809523809518,297.9428571428571Z" fill="#54a24b" opacity="0.7"/></g></g><path class="foreground" aria-hidden="true" d="" display="none"/></g></g><g class="mark-group role-legend" role="graphics-symbol" aria-roledescription="legend" aria-label="Symbol legend titled 'reason' for fill color with 6 values: bloomfilter, cardinality, datatype, extrema, failed_check, succeeded_check"><g transform="translate(418,0)"><path class="background" aria-hidden="true" d="M0,0h104v92h-104Z" pointer-events="none"/><g><g class="mark-group role-legend-entry"><g transform="translate(0,16)"><path class="background" aria-hidden="true" d="M0,0h0v0h0Z" pointer-events="none"/><g><g class="mark-group role-scope" role="graphics-object" aria-roledescription="group mark container"><g transform="translate(0,0)"><path class="background" aria-hidden="true" d="M0,0h103.96666717529297v11h-103.96666717529297Z" pointer-events="none" opacity="1"/><g><g class="mark-symbol role-legend-symbol" pointer-events="none"><path transform="translate(6,6)" d="M5,0A5,5,0,1,1,-5,0A5,5,0,1,1,5,0" fill="#4c78a8" stroke-width="1.5" opacity="0.7"/></g><g class="mark-text role-legend-label" pointer-events="none"><text text-anchor="start" transform="translate(16,9)" font-family="sans-serif" font-size="10px" fill="#000" opacity="1">bloomfilter</text></g></g><path class="foreground" aria-hidden="true" d="" pointer-events="none" display="none"/></g><g transform="translate(0,13)"><path class="background" aria-hidden="true" d="M0,0h103.96666717529297v11h-103.96666717529297Z" pointer-events="none" opacity="1"/><g><g class="mark-symbol role-legend-symbol" pointer-events="none"><path transform="translate(6,6)" d="M5,0A5,5,0,1,1,-5,0A5,5,0,1,1,5,0" fill="#f58518" stroke-width="1.5" opacity="0.7"/></g><g class="mark-text role-legend-label" pointer-events="none"><text text-anchor="start" transform="translate(16,9)" font-family="sans-serif" font-size="10px" fill="#000" opacity="1">cardinality</text></g></g><path class="foreground" aria-hidden="true" d="" pointer-events="none" display="none"/></g><g transform="translate(0,26)"><path class="background" aria-hidden="true" d="M0,0h103.96666717529297v11h-103.96666717529297Z" pointer-events="none" opacity="1"/><g><g class="mark-symbol role-legend-symbol" pointer-events="none"><path transform="translate(6,6)" d="M5,0A5,5,0,1,1,-5,0A5,5,0,1,1,5,0" fill="#e45756" stroke-width="1.5" opacity="0.7"/></g><g class="mark-text role-legend-label" pointer-events="none"><text text-anchor="start" transform="translate(16,9)" font-family="sans-serif" font-size="10px" fill="#000" opacity="1">datatype</text></g></g><path class="foreground" aria-hidden="true" d="" pointer-events="none" display="none"/></g><g transform="translate(0,39)"><path class="background" aria-hidden="true" d="M0,0h103.96666717529297v11h-103.96666717529297Z" pointer-events="none" opacity="1"/><g><g class="mark-symbol role-legend-symbol" pointer-events="none"><path transform="translate(6,6)" d="M5,0A5,5,0,1,1,-5,0A5,5,0,1,1,5,0" fill="#72b7b2" stroke-width="1.5" opacity="0.7"/></g><g class="mark-text role-legend-label" pointer-events="none"><text text-anchor="start" transform="translate(16,9)" font-family="sans-serif" font-size="10px" fill="#000" opacity="1">extrema</text></g></g><path class="foreground" aria-hidden="true" d="" pointer-events="none" display="none"/></g><g transform="translate(0,52)"><path class="background" aria-hidden="true" d="M0,0h103.96666717529297v11h-103.96666717529297Z" pointer-events="none" opacity="1"/><g><g class="mark-symbol role-legend-symbol" pointer-events="none"><path transform="translate(6,6)" d="M5,0A5,5,0,1,1,-5,0A5,5,0,1,1,5,0" fill="#54a24b" stroke-width="1.5" opacity="0.7"/></g><g class="mark-text role-legend-label" pointer-events="none"><text text-anchor="start" transform="translate(16,9)" font-family="sans-serif" font-size="10px" fill="#000" opacity="1">failed_check</text></g></g><path class="foreground" aria-hidden="true" d="" pointer-events="none" display="none"/></g><g transform="translate(0,65)"><path class="background" aria-hidden="true" d="M0,0h103.96666717529297v11h-103.96666717529297Z" pointer-events="none" opacity="1"/><g><g class="mark-symbol role-legend-symbol" pointer-events="none"><path transform="translate(6,6)" d="M5,0A5,5,0,1,1,-5,0A5,5,0,1,1,5,0" fill="#eeca3b" stroke-width="1.5" opacity="0.7"/></g><g class="mark-text role-legend-label" pointer-events="none"><text text-anchor="start" transform="translate(16,9)" font-family="sans-serif" font-size="10px" fill="#000" opacity="1">succeeded_check</text></g></g><path class="foreground" aria-hidden="true" d="" pointer-events="none" display="none"/></g></g></g><path class="foreground" aria-hidden="true" d="" pointer-events="none" display="none"/></g></g><g class="mark-text role-legend-title" pointer-events="none"><text text-anchor="start" transform="translate(0,9)" font-family="sans-serif" font-size="11px" font-weight="bold" fill="#000" opacity="1">reason</text></g></g><path class="foreground" aria-hidden="true" d="" pointer-events="none" display="none"/></g></g></g><path class="foreground" aria-hidden="true" d="" display="none"/></g></g></g></svg>