<svg xmlns="http://www.w3.org/2000/svg" xmlns:xlink="http://www.w3.org/1999/xlink" version="1.1" class="marks" width="583" height="357" viewBox="0 0 583 357"><rect width="583" height="357" fill="white"/><g fill="none" stroke-miterlimit="10" transform="translate(56,10)"><g class="mark-group role-frame root" role="graphics-object" aria-roledescription="group mark container"><g transform="translate(0,0)"><path class="background" aria-hidden="true" d="M0.5,0.5h400v300h-400Z" stroke="#ddd"/><g><g class="mark-group role-axis" aria-hidden="true"><g transform="translate(0.5,0.5)"><path class="background" aria-hidden="true" d="M0,0h0v0h0Z" pointer-events="none"/><g><g class="mark-rule role-axis-grid" pointer-events="none"><line transform="translate(0,300)" x2="400" y2="0" stroke="#ddd" stroke-width="1" opacity="1"/><line transform="translate(0,257)" x2="400" y2="0" stroke="#ddd" stroke-width="1" opacity="1"/><line transform="translate(0,214)" x2="400" y2="0" stroke="#ddd" stroke-width="1" opacity="1"/><line transform="translate(0,171)" x2="400" y2="0" stroke="#ddd" stroke-width="1" opacity="1"/><line transform="translate(0,129)" x2="400" y2="0" stroke="#ddd" stroke-width="1" opacity="1"/><line transform="translate(0,86)" x2="400" y2="0" stroke="#ddd" stroke-width="1" opacity="1"/><line transform="translate(0,43)" x2="400" y2="0" stroke="#ddd" stroke-width="1" opacity="1"/><line transform="translate(0,0)" x2="400" y2="0" stroke="#ddd" stroke-width="1" opacity="1"/></g></g><path class="foreground" aria-hidden="true" d="" pointer-events="none" display="none"/></g></g><g class="mark-group role-axis" role="graphics-symbol" aria-roledescription="axis" aria-label="X-axis titled 'timestamp' for a discrete scale with 21 values: 1, 2, 4, 6, 8, ending with 112"><g transform="translate(0.5,300.5)"><path class="background" aria-hidden="true" d="M0,0h0v0h0Z" pointer-events="none"/><g><g class="mark-rule role-axis-tick" pointer-events="none"><line transform="translate(10,0)" x2="0" y2="5" stroke="#888" stroke-width="1" opacity="1"/><line transform="translate(29,0)" x2="0" y2="5" stroke="#888" stroke-width="1" opacity="1"/><line transform="translate(48,0)" x2="0" y2="5" stroke="#888" stroke-width="1" opacity="1"/><line transform="translate(67,0)" x2="0" y2="5" stroke="#888" stroke-width="1" opacity="1"/><line transform="translate(86,0)" x2="0" y2="5" stroke="#888" stroke-width="1" opacity="1"/><line transform="translate(105,0)" x2="0" y2="5" stroke="#888" stroke-width="1" opacity="1"/><line transform="translate(124,0)" x2="0" y2="5" stroke="#888" stroke-width="1" opacity="1"/><line transform="translate(143,0)" x2="0" y2="5" stroke="#888" stroke-width="1" opacity="1"/><line transform="translate(162,0)" x2="0" y2="5" stroke="#888" stroke-width="1" opacity="1"/><line transform="translate(181,0)" x2="0" y2="5" stroke="#888" stroke-width="1" opacity="1"/><line transform="translate(200,0)" x2="0" y2="5" stroke="#888" stroke-width="1" opacity="1"/><line transform="translate(219,0)" x2="0" y2="5" stroke="#888" stroke-width="1" opacity="1"/><line transform="translate(238,0)" x2="0" y2="5" stroke="#888" stroke-width="1" opacity="1"/><line transform="translate(257,0)" x2="0" y2="5" stroke="#888" stroke-width="1" opacity="1"/><line transform="translate(276,0)" x2="0" y2="5" stroke="#888" stroke-width="1" opacity="1"/><line transform="translate(295,0)" x2="0" y2="5" stroke="#888" stroke-width="1" opacity="1"/><line transform="translate(314,0)" x2="0" y2="5" stroke="#888" stroke-width="1" opacity="1"/><line transform="translate(333,0)" x2="0" y2="5" stroke="#888" stroke-width="1" opacity="1"/><line transform="translate(352,0)" x2="0" y2="5" stroke="#888" stroke-width="1" opacity="1"/><line transform="translate(371,0)" x2="0" y2="5" stroke="#888" stroke-width="1" opacity="1"/><line transform="translate(390,0)" x2="0" y2="5" stroke="#888" stroke-width="1" opacity="1"/></g><g class="mark-text role-axis-label" pointer-events="none"><text text-anchor="end" transform="translate(9.523809523809518,7) rotate(270) translate(0,3)" font-family="sans-serif" font-size="10px" fill="#000" opacity="1">1</text><text text-anchor="end" transform="translate(28.571428571428566,7) rotate(270) translate(0,3)" font-family="sans-serif" font-size="10px" fill="#000" opacity="1">2</text><text text-anchor="end" transform="translate(47.61904761904761,7) rotate(270) translate(0,3)" font-family="sans-serif" font-size="10px" fill="#000" opacity="1">4</text><text text-anchor="end" transform="translate(66.66666666666666,7) rotate(270) translate(0,3)" font-family="sans-serif" font-size="10px" fill="#000" opacity="1">6</text><text text-anchor="end" transform="translate(85.71428571428571,7) rotate(270) translate(0,3)" font-family="sans-serif" font-size="10px" fill="#000" opacity="1">8</text><text text-anchor="end" transform="translate(104.76190476190476,7) rotate(270) translate(0,3)" font-family="sans-serif" font-size="10px" fill="#000" opacity="1">11</text><text text-anchor="end" transform="translate(123.8095238095238,7) rotate(270) translate(0,3)" font-family="sans-serif" font-size="10px" fill="#000" opacity="1">14</text><text text-anchor="end" transform="translate(142.85714285714286,7) rotate(270) translate(0,3)" font-family="sans-serif" font-size="10px" fill="#000" opacity="1">18</text><text text-anchor="end" transform="translate(161.9047619047619,7) rotate(270) translate(0,3)" font-family="sans-serif" font-size="10px" fill="#000" opacity="1">21</text><text text-anchor="end" transform="translate(180.95238095238093,7) rotate(270) translate(0,3)" font-family="sans-serif" font-size="10px" fill="#000" opacity="1">22</text><text text-anchor="end" transform="translate(200,7) rotate(270) translate(0,3)" font-family="sans-serif" font-size="10px" fill="#000" opacity="1">26</text><text text-anchor="end" transform="translate(219.04761904761904,7) rotate(270) translate(0,3)" font-family="sans-serif" font-size="10px" fill="#000" opacity="1">31</text><text text-anchor="end" transform="translate(238.09523809523807,7) rotate(270) translate(0,3)" font-family="sans-serif" font-size="10px" fill="#000" opacity="1">36</text><text text-anchor="end" transform="translate(257.1428571428571,7) rotate(270) translate(0,3)" font-family="sans-serif" font-size="10px" fill="#000" opacity="1">42</text><text text-anchor="end" transform="translate(276.1904761904762,7) rotate(270) translate(0,3)" font-family="sans-serif" font-size="10px" fill="#000" opacity="1">49</text><text text-anchor="end" transform="translate(295.23809523809524,7) rotate(270) translate(0,3)" font-family="sans-serif" font-size="10px" fill="#000" opacity="1">57</text><text text-anchor="end" transform="translate(314.2857142857143,7) rotate(270) translate(0,3)" font-family="sans-serif" font-size="10px" fill="#000" opacity="1">65</text><text text-anchor="end" transform="translate(333.3333333333333,7) rotate(270) translate(0,3)" font-family="sans-serif" font-size="10px" fill="#000" opacity="1">74</text><text text-anchor="end" transform="translate(352.38095238095235,7) rotate(270) translate(0,3)" font-family="sans-serif" font-size="10px" fill="#000" opacity="1">86</text><text text-anchor="end" transform="translate(371.42857142857144,7) rotate(270) translate(0,3)" font-family="sans-serif" font-size="10px" fill="#000" opacity="1">98</text><text text-anchor="end" transform="translate(390.4761904761905,7) rotate(270) translate(0,3)" font-family="sans-serif" font-size="10px" fill="#000" opacity="1">112</text></g><g class="mark-rule role-axis-domain" pointer-events="none"><line transform="translate(0,0)" x2="400" y2="0" stroke="#888" stroke-width="1" opacity="1"/></g><g class="mark-text role-axis-title" pointer-events="none"><text text-anchor="middle" transform="translate(200,39.10000038146973)" font-family="sans-serif" font-size="11px" font-weight="bold" fill="#000" opacity="1">timestamp</text></g></g><path class="foreground" aria-hidden="true" d="" pointer-events="none" display="none"/></g></g><g class="mark-group role-axis" role="graphics-symbol" aria-roledescription="axis" aria-label="Y-axis titled 'generated candidates' for a linear scale with values from 0 to 3,500"><g transform="translate(0.5,0.5)"><path class="background" aria-hidden="true" d="M0,0h0v0h0Z" pointer-events="none"/><g><g class="mark-rule role-axis-tick" pointer-events="none"><line transform="translate(0,300)" x2="-5" y2="0" stroke="#888" stroke-width="1" opacity="1"/><line transform="translate(0,257)" x2="-5" y2="0" stroke="#888" stroke-width="1" opacity="1"/><line transform="translate(0,214)" x2="-5" y2="0" stroke="#888" stroke-width="1" opacity="1"/><line transform="translate(0,171)" x2="-5" y2="0" stroke="#888" stroke-width="1" opacity="1"/><line transform="translate(0,129)" x2="-5" y2="0" stroke="#888" stroke-width="1" opacity="1"/><line transform="translate(0,86)" x2="-5" y2="0" stroke="#888" stroke-width="1" opacity="1"/><line transform="translate(0,43)" x2="-5" y2="0" stroke="#888" stroke-width="1" opacity="1"/><line transform="translate(0,0)" x2="-5" y2="0" stroke="#888" stroke-width="1" opacity="1"/></g><g class="mark-text role-axis-label" pointer-events="none"><text text-anchor="end" transform="translate(-7,303)" font-family="sans-serif" font-size="10px" fill="#000" opacity="1">0</text><text text-anchor="end" transform="translate(-7,260.14285714285717)" font-family="sans-serif" font-size="10px" fill="#000" opacity="1">500</text><text text-anchor="end" transform="translate(-7,217.28571428571428)" font-family="sans-serif" font-size="10px" fill="#000" opacity="1">1,000</text><text text-anchor="end" transform="translate(-7,174.42857142857142)" font-family="sans-serif" font-size="10px" fill="#000" opacity="1">1,500</text><text text-anchor="end" transform="translate(-7,131.57142857142858)" font-family="sans-serif" font-size="10px" fill="#000" opacity="1">2,000</text><text text-anchor="end" transform="translate(-7,88.71428571428571)" font-family="sans-serif" font-size="10px" fill="#000" opacity="1">2,500</text><text text-anchor="end" transform="translate(-7,45.85714285714287)" font-family="sans-serif" font-size="10px" fill="#000" opacity="1">3,000</text><text text-anchor="end" transform="translate(-7,3)" font-family="sans-serif" font-size="10px" fill="#000" opacity="1">3,500</text></g><g class="mark-rule role-axis-domain" pointer-events="none"><line transform="translate(0,300)" x2="0" y2="-300" stroke="#888" stroke-width="1" opacity="1"/></g><g class="mark-text role-axis-title" pointer-events="none"><text text-anchor="middle" transform="translate(-39.64999961853027,150) rotate(-90) translate(0,-2)" font-family="sans-serif" font-size="11px" font-weight="bold" fill="#000" opacity="1">generated candidates</text></g></g><path class="foreground" aria-hidden="true" d="" pointer-events="none" display="none"/></g></g><g class="mark-group role-scope pathgroup" role="graphics-object" aria-roledescription="group mark container"><g transform="translate(0,0)"><path class="background" aria-hidden="true" d="M0,0h400v300h-400Z"/><g><g class="mark-area role-mark marks" role="graphics-object" aria-roledescription="area mark container"><path aria-label="reason: cardinality; timestamp: 1; generated candidates: 1486" role="graphics-symbol" aria-roledescription="area mark" d="M9.523809523809518,51.34285714285715L28.571428571428566,163.71428571428572L47.61904761904761,198.85714285714283L66.66666666666666,198.85714285714283L85.71428571428571,197.57142857142858L104.76190476190476,206.14285714285714L123.8095238095238,205.9714285714286L142.85714285714286,201.34285714285716L161.9047619047619,211.8857142857143L180.95238095238093,298.8857142857143L200,253.11428571428573L219.04761904761904,253.28571428571428L238.09523809523807,262.54285714285714L257.1428571428571,262.54285714285714L276.1904761904762,262.54285714285714L295.23809523809524,257.8285714285714L314.2857142857143,257.8285714285714L333.3333333333333,262.54285714285714L352.38095238095235,257.8285714285714L371.42857142857144,262.62857142857143L390.4761904761905,281.3142857142857L390.4761904761905,298.54285714285714L371.42857142857144,297L352.38095238095235,294.77142857142854L333.3333333333333,296.74285714285713L314.2857142857143,294.6L295.23809523809524,294.1714285714286L276.1904761904762,296.22857142857146L257.1428571428571,296.1428571428571L238.09523809523807,296.1428571428571L219.04761904761904,291.85714285714283L200,291.34285714285716L180.95238095238093,298.8857142857143L161.9047619047619,285.6857142857143L142.85714285714286,280.0285714285714L123.8095238095238,282.25714285714287L104.76190476190476,282.42857142857144L85.71428571428571,278.48571428571427L66.66666666666666,279.68571428571425L47.61904761904761,279.0857142857143L28.571428571428566,266.74285714285713L9.523809523809518,178.7142857142857Z" fill="#f58518" opacity="0.7"/></g></g><path class="foreground" aria-hidden="true" d="" display="none"/></g><g transform="translate(0,0)"><path class="background" aria-hidden="true" d="M0,0h400v300h-400Z"/><g><g class="mark-area role-mark marks" role="graphics-object" aria-roledescription="area mark container"><path aria-label="reason: extrema; timestamp: 1; generated candidates: 981" role="graphics-symbol" aria-roledescription="area mark" d="M9.523809523809518,213.17142857142858L28.571428571428566,282.34285714285716L47.61904761904761,291.51428571428573L66.66666666666666,291.51428571428573L85.71428571428571,290.74285714285713L104.76190476190476,291.34285714285716L123.8095238095238,291.1714285714286L142.85714285714286,291.0857142857143L161.9047619047619,292.45714285714286L180.95238095238093,298.8857142857143L200,298.45714285714286L219.04761904761904,298.62857142857143L238.09523809523807,298.62857142857143L257.1428571428571,298.62857142857143L276.1904761904762,298.62857142857143L295.23809523809524,298.62857142857143L314.2857142857143,298.7142857142857L333.3333333333333,298.7142857142857L352.38095238095235,298.8L371.42857142857144,298.9714285714286L390.4761904761905,299.57142857142856L390.4761904761905,299.8285714285714L371.42857142857144,299.57142857142856L352.38095238095235,299.57142857142856L333.3333333333333,299.57142857142856L314.2857142857143,299.57142857142856L295.23809523809524,299.57142857142856L276.1904761904762,299.57142857142856L257.1428571428571,299.57142857142856L238.09523809523807,299.57142857142856L219.04761904761904,299.57142857142856L200,299.57142857142856L180.95238095238093,298.8857142857143L161.9047619047619,299.0571428571429L142.85714285714286,298.2L123.8095238095238,298.37142857142857L104.76190476190476,298.54285714285714L85.71428571428571,298.8857142857143L66.66666666666666,300L47.61904761904761,300L28.571428571428566,300L9.523809523809518,297.25714285714287Z" fill="#72b7b2" opacity="0.7"/></g></g><path class="foreground" aria-hidden="true" d="" display="none"/></g><g transform="translate(0,0)"><path class="background" aria-hidden="true" d="M0,0h400v300h-400Z"/><g><g class="mark-area role-mark marks" role="graphics-object" aria-roledescription="area mark container"><path aria-label="reason: datatype; timestamp: 1; generated candidates: 402" role="graphics-symbol" aria-roledescription="area mark" d="M9.523809523809518,178.7142857142857L28.571428571428566,266.74285714285713L47.61904761904761,279.0857142857143L66.66666666666666,279.68571428571425L85.71428571428571,278.48571428571427L104.76190476190476,282.42857142857144L123.8095238095238,282.25714285714287L142.85714285714286,280.0285714285714L161.9047619047619,285.6857142857143L180.95238095238093,298.8857142857143L200,291.34285714285716L219.04761904761904,291.85714285714283L238.09523809523807,296.1428571428571L257.1428571428571,296.1428571428571L276.1904761904762,296.22857142857146L295.23809523809524,294.1714285714286L314.2857142857143,294.6L333.3333333333333,296.74285714285713L352.38095238095235,294.77142857142854L371.42857142857144,297L390.4761904761905,298.54285714285714L390.4761904761905,299.57142857142856L371.42857142857144,298.9714285714286L352.38095238095235,298.8L333.3333333333333,298.7142857142857L314.2857142857143,298.7142857142857L295.23809523809524,298.62857142857143L276.1904761904762,298.62857142857143L257.1428571428571,298.62857142857143L238.09523809523807,298.62857142857143L219.04761904761904,298.62857142857143L200,298.45714285714286L180.95238095238093,298.8857142857143L161.9047619047619,292.45714285714286L142.85714285714286,291.0857142857143L123.8095238095238,291.1714285714286L104.76190476190476,291.34285714285716L85.71428571428571,290.74285714285713L66.66666666666666,291.51428571428573L47.61904761904761,291.51428571428573L28.571428571428566,282.34285714285716L9.523809523809518,213.17142857142858Z" fill="#e45756" opacity="0.7"/></g></g><path class="foreground" aria-hidden="true" d="" display="none"/></g><g transform="translate(0,0)"><path class="background" aria-hidden="true" d="M0,0h400v300h-400Z"/><g><g class="mark-area role-mark marks" role="graphics-object" aria-roledescription="area mark container"><path aria-label="reason: bloomfilter; timestamp: 1; generated candidates: 178" role="graphics-symbol" aria-roledescription="area mark" d="M9.523809523809518,36.085714285714296L28.571428571428566,159.0857142857143L47.61904761904761,196.71428571428572L66.66666666666666,196.8L85.71428571428571,196.8L104.76190476190476,205.79999999999998L123.8095238095238,205.79999999999998L142.85714285714286,201.34285714285716L161.9047619047619,211.8857142857143L180.95238095238093,298.8857142857143L200,253.11428571428573L219.04761904761904,253.28571428571428L238.09523809523807,262.54285714285714L257.1428571428571,262.54285714285714L276.1904761904762,262.54285714285714L295.23809523809524,257.8285714285714L314.2857142857143,257.8285714285714L333.3333333333333,262.54285714285714L352.38095238095235,257.8285714285714L371.42857142857144,262.62857142857143L390.4761904761905,281.3142857142857L390.4761904761905,281.3142857142857L371.42857142857144,262.62857142857143L352.38095238095235,257.8285714285714L333.3333333333333,262.54285714285714L314.2857142857143,257.8285714285714L295.23809523809524,257.8285714285714L276.1904761904762,262.54285714285714L257.1428571428571,262.54285714285714L238.09523809523807,262.54285714285714L219.04761904761904,253.28571428571428L200,253.11428571428573L180.95238095238093,298.8857142857143L161.9047619047619,211.8857142857143L142.85714285714286,201.34285714285716L123.8095238095238,205.9714285714286L104.76190476190476,206.14285714285714L85.71428571428571,197.57142857142858L66.66666666666666,198.85714285714283L47.61904761904761,198.85714285714283L28.571428571428566,163.71428571428572L9.523809523809518,51.34285714285715Z" fill="#4c78a8" opacity="0.7"/></g></g><path class="foreground" aria-hidden="true" d="" display="none"/></g><g transform="translate(0,0)"><path class="background" aria-hidden="true" d="M0,0h400v300h-400Z"/><g><g class="mark-area role-mark marks" role="graphics-object" aria-roledescription="area mark container"><path aria-label="reason: succeeded_check; timestamp: 1; generated candidates: 32" role="graphics-symbol" aria-roledescription="area mark" d="M9.523809523809518,297.25714285714287L28.571428571428566,300L47.61904761904761,300L66.66666666666666,300L85.71428571428571,300L104.76190476190476,300L123.8095238095238,300L142.85714285714286,300L161.9047619047619,300L180.95238095238093,300L200,300L219.04761904761904,300L238.09523809523807,300L257.1428571428571,300L276.1904761904762,300L295.23809523809524,300L314.2857142857143,300L333.3333333333333,300L352.38095238095235,300L371.42857142857144,300L390.4761904761905,300L390.4761904761905,300L371.42857142857144,300L352.38095238095235,300L333.3333333333333,300L314.2857142857143,300L295.23809523809524,300L276.1904761904762,300L257.1428571428571,300L238.09523809523807,300L219.04761904761904,300L200,300L180.95238095238093,300L161.9047619047619,300L142.85714285714286,300L123.8095238095238,300L104.76190476190476,300L85.71428571428571,300L66.66666666666666,300L47.61904761904761,300L28.571428571428566,300L9.523809523809518,300Z" fill="#eeca3b" opacity="0.7"/></g></g><path class="foreground" aria-hidden="true" d="" display="none"/></g><g transform="translate(0,0)"><path class="background" aria-hidden="true" d="M0,0h400v300h-400Z"/><g><g class="mark-area role-mark marks" role="graphics-object" aria-roledescription="area mark container"><path aria-label="reason: failed_check; timestamp: 1; generated candidates: 0" role="graphics-symbol" aria-roledescription="area mark" d="M9.523809523809518,297.25714285714287L28.571428571428566,300L47.61904761904761,300L66.66666666666666,300L85.71428571428571,298.8857142857143L104.76190476190476,298.54285714285714L123.8095238095238,298.37142857142857L142.85714285714286,298.2L161.9047619047619,299.0571428571429L180.95238095238093,298.8857142857143L200,299.57142857142856L219.04761904761904,299.57142857142856L238.09523809523807,299.57142857142856L257.1428571428571,299.57142857142856L276.1904761904762,299.57142857142856L295.23809523809524,299.57142857142856L314.2857142857143,299.57142857142856L333.3333333333333,299.57142857142856L352.38095238095235,299.57142857142856L371.42857142857144,299.57142857142856L390.4761904761905,299.8285714285714L390.4761904761905,300L371.42857142857144,300L352.38095238095235,300L333.3333333333333,300L314.2857142857143,300L295.23809523809524,300L276.1904761904762,300L257.1428571428571,300L238.09523809523807,300L219.04761904761904,300L200,300L180.95238095238093,300L161.9047619047619,300L142.85714285714286,300L123.8095238095238,300L104.76190476190476,300L85.71428571428571,300L66.66666666666666,300L47.61904761904761,300L28.571428571428566,300L9.523809523809518,297.25714285714287Z" fill="#54a24b" opacity="0.7"/></g></g><path class="foreground" aria-hidden="true" d="" display="none"/></g></g><g class="mark-group role-legend" role="graphics-symbol" aria-roledescription="legend" aria-label="Symbol legend titled 'reason' for fill color with 6 values: bloomfilter, cardinality, datatype, extrema, failed_check, succeeded_check"><g transform="translate(418,0)"><path class="background" aria-hidden="true" d="M0,0h104v92h-104Z" pointer-events="none"/><g><g class="mark-group role-legend-entry"><g transform="translate(0,16)"><path class="background" aria-hidden="true" d="M0,0h0v0h0Z" pointer-events="none"/><g><g class="mark-group role-scope" role="graphics-object" aria-roledescription="group mark container"><g transform="translate(0,0)"><path class="background" aria-hidden="true" d="M0,0h103.96666717529297v11h-103.96666717529297Z" pointer-events="none" opacity="1"/><g><g class="mark-symbol role-legend-symbol" pointer-events="none"><path transform="translate(6,6)" d="M5,0A5,5,0,1,1,-5,0A5,5,0,1,1,5,0" fill="#4c78a8" stroke-width="1.5" opacity="0.7"/></g><g class="mark-text role-legend-label" pointer-events="none"><text text-anchor="start" transform="translate(16,9)" font-family="sans-serif" font-size="10px" fill="#000" opacity="1">bloomfilter</text></g></g><path class="foreground" aria-hidden="true" d="" pointer-events="none" display="none"/></g><g transform="translate(0,13)"><path class="background" aria-hidden="true" d="M0,0h103.96666717529297v11h-103.96666717529297Z" pointer-events="none" opacity="1"/><g><g class="mark-symbol role-legend-symbol" pointer-events="none"><path transform="translate(6,6)" d="M5,0A5,5,0,1,1,-5,0A5,5,0,1,1,5,0" fill="#f58518" stroke-width="1.5" opacity="0.7"/></g><g class="mark-text role-legend-label" pointer-events="none"><text text-anchor="start" transform="translate(16,9)" font-family="sans-serif" font-size="10px" fill="#000" opacity="1">cardinality</text></g></g><path class="foreground" aria-hidden="true" d="" pointer-events="none" display="none"/></g><g transform="translate(0,26)"><path class="background" aria-hidden="true" d="M0,0h103.96666717529297v11h-103.96666717529297Z" pointer-events="none" opacity="1"/><g><g class="mark-symbol role-legend-symbol" pointer-events="none"><path transform="translate(6,6)" d="M5,0A5,5,0,1,1,-5,0A5,5,0,1,1,5,0" fill="#e45756" stroke-width="1.5" opacity="0.7"/></g><g class="mark-text role-legend-label" pointer-events="none"><text text-anchor="start" transform="translate(16,9)" font-family="sans-serif" font-size="10px" fill="#000" opacity="1">datatype</text></g></g><path class="foreground" aria-hidden="true" d="" pointer-events="none" display="none"/></g><g transform="translate(0,39)"><path class="background" aria-hidden="true" d="M0,0h103.96666717529297v11h-103.96666717529297Z" pointer-events="none" opacity="1"/><g><g class="mark-symbol role-legend-symbol" pointer-events="none"><path transform="translate(6,6)" d="M5,0A5,5,0,1,1,-5,0A5,5,0,1,1,5,0" fill="#72b7b2" stroke-width="1.5" opacity="0.7"/></g><g class="mark-text role-legend-label" pointer-events="none"><text text-anchor="start" transform="translate(16,9)" font-family="sans-serif" font-size="10px" fill="#000" opacity="1">extrema</text></g></g><path class="foreground" aria-hidden="true" d="" pointer-events="none" display="none"/></g><g transform="translate(0,52)"><path class="background" aria-hidden="true" d="M0,0h103.96666717529297v11h-103.96666717529297Z" pointer-events="none" opacity="1"/><g><g class="mark-symbol role-legend-symbol" pointer-events="none"><path transform="translate(6,6)" d="M5,0A5,5,0,1,1,-5,0A5,5,0,1,1,5,0" fill="#54a24b" stroke-width="1.5" opacity="0.7"/></g><g class="mark-text role-legend-label" pointer-events="none"><text text-anchor="start" transform="translate(16,9)" font-family="sans-serif" font-size="10px" fill="#000" opacity="1">failed_check</text></g></g><path class="foreground" aria-hidden="true" d="" pointer-events="none" display="none"/></g><g transform="translate(0,65)"><path class="background" aria-hidden="true" d="M0,0h103.96666717529297v11h-103.96666717529297Z" pointer-events="none" opacity="1"/><g><g class="mark-symbol role-legend-symbol" pointer-events="none"><path transform="translate(6,6)" d="M5,0A5,5,0,1,1,-5,0A5,5,0,1,1,5,0" fill="#eeca3b" stroke-width="1.5" opacity="0.7"/></g><g class="mark-text role-legend-label" pointer-events="none"><text text-anchor="start" transform="translate(16,9)" font-family="sans-serif" font-size="10px" fill="#000" opacity="1">succeeded_check</text></g></g><path class="foreground" aria-hidden="true" d="" pointer-events="none" display="none"/></g></g></g><path class="foreground" aria-hidden="true" d="" pointer-events="none" display="none"/></g></g><g class="mark-text role-legend-title" pointer-events="none"><text text-anchor="start" transform="translate(0,9)" font-family="sans-serif" font-size="11px" font-weight="bold" fill="#000" opacity="1">reason</text></g></g><path class="foreground" aria-hidden="true" d="" pointer-events="none" display="none"/></g></g></g><path class="foreground" aria-hidden="true" d="" display="none"/></g></g></g></svg>